<?xml version="1.0" encoding="utf-8"?>
<!-- Generator: Adobe Illustrator 22.0.1, SVG Export Plug-In . SVG Version: 6.00 Build 0)  -->
<svg version="1.1" id="Layer_1" xmlns="http://www.w3.org/2000/svg" xmlns:xlink="http://www.w3.org/1999/xlink" x="0px" y="0px"
	 viewBox="0 0 31.9 16.7" style="enable-background:new 0 0 31.9 16.7;" xml:space="preserve">
<style type="text/css">
	.st0{fill:#757575;}
</style>
<path class="st0" d="M10.3,13.4H4.7C4.3,13.4,4,13,4,12.6s0.4-0.8,0.8-0.8h5.6c0.4,0,0.8,0.4,0.8,0.8C11.1,13,10.7,13.4,10.3,13.4"
	/>
<path class="st0" d="M0.8,7.9h8.7c0.4,0,0.8,0.4,0.8,0.8S9.9,9.5,9.5,9.5H0.8C0.4,9.4,0,9,0,8.6C0,8.2,0.3,7.9,0.8,7.9"/>
<path class="st0" d="M4.7,5.5C4.3,5.5,4,5.1,4,4.7s0.4-0.8,0.8-0.8h5.6c0.4,0,0.8,0.4,0.8,0.8s-0.4,0.8-0.8,0.8H4.7z"/>
<path class="st0" d="M24.1,10.1c2.2-1.3,4.4-2.6,6.6-3.9v0.4v2.9v1.2V11c-1.2,0.7-2.3,1.4-3.5,2.1c-1,0.6-2.1,1.3-3.1,1.9V10.1z
	 M23,10.1v5.1c-0.1-0.1-0.3-0.1-0.4-0.2c-2.1-1.2-4.2-2.5-6.3-3.7V6.8V6.2C18.5,7.4,20.7,8.7,23,10.1z M23.5,9.1L23.5,9.1
	c-0.3-0.2-0.6-0.4-0.9-0.6c-0.6-0.4-1.3-0.8-1.9-1.1C22.8,6,25,4.7,27.1,3.3c0.8,0.5,1.6,0.9,2.3,1.4c0.3,0.2,0.5,0.3,0.8,0.5
	C28,6.5,25.8,7.8,23.5,9.1z M23.6,1.2c0.3,0.2,0.5,0.3,0.8,0.5c0.6,0.3,1.1,0.7,1.7,1c-2.1,1.4-4.3,2.7-6.4,4.1
	c-0.9-0.6-1.9-1.1-2.8-1.7C17,5,17.2,4.9,17.4,4.8c1.7-1,3.4-1.9,5.1-2.9C22.8,1.6,23.2,1.4,23.6,1.2z M31.8,8.4V5.1
	c0-0.6-1.4-1.1-1.7-1.3C28,2.5,25.9,1.3,23.8,0c-0.1-0.1-0.3-0.1-0.5,0c-2.1,1.2-4.2,2.4-6.3,3.6c-0.4,0.2-1.7,0.7-1.9,1.2
	c-0.3,1,0,2.3,0,3.3v3.4c0,0.6,1.3,1.1,1.7,1.3c2.1,1.3,4.3,2.5,6.4,3.8l0,0c0.1,0.1,0.3,0.1,0.4,0c2.1-1.3,4.1-2.5,6.2-3.8
	c0.4-0.3,1.7-0.7,1.9-1.3C32.1,10.7,31.8,9.4,31.8,8.4z"/>
</svg>
