<?xml version="1.0" encoding="utf-8"?>
<!-- Generator: Adobe Illustrator 22.0.1, SVG Export Plug-In . SVG Version: 6.00 Build 0)  -->
<svg version="1.1" id="Layer_1" xmlns="http://www.w3.org/2000/svg" xmlns:xlink="http://www.w3.org/1999/xlink" x="0px" y="0px"
	 viewBox="0 0 677.427 98.583" style="enable-background:new 0 0 677.427 98.583;" xml:space="preserve">
<style type="text/css">
	.st0{fill:#212121;}
	.st1{fill:#424242;}
</style>
<path class="st0" d="M512.4-97.767"/>
<g>
	<path class="st1" d="M74.669,34.728c0,4.103-0.703,7.97-2.11,11.369c-1.406,3.398-3.399,6.329-6.094,8.79
		c-2.696,2.461-6.212,4.337-10.314,5.743s-8.908,1.992-14.416,1.992H31.304v18.283c1.407,0.234,2.696,0.47,3.516,0.587
		s1.406,0.352,1.758,0.352c0.352,0,0.586,0.117,0.703,0.117c1.992,0.469,2.93,1.641,2.93,3.633v6.915h-8.908H15.599H6.692v-6.915
		c0-1.992,0.938-3.164,2.93-3.633c0.117,0,0.352-0.117,0.704-0.117c0.352-0.117,0.938-0.234,1.758-0.352s2.11-0.353,3.516-0.587
		V19.374c-1.406-0.234-2.696-0.469-3.516-0.586s-1.406-0.352-1.758-0.352c-0.352-0.117-0.586-0.117-0.704-0.117
		c-1.992-0.469-2.93-1.641-2.93-3.633V7.771h8.907h26.136c5.625,0,10.666,0.703,14.768,1.992s7.501,3.281,10.197,5.626
		c2.695,2.344,4.688,5.156,5.977,8.438C73.966,27.109,74.669,30.743,74.669,34.728z M58.847,34.728c0-2.227-0.352-4.219-1.055-6.095
		c-0.703-1.875-1.758-3.398-3.165-4.688c-1.406-1.289-3.164-2.227-5.274-2.931c-2.11-0.703-4.688-1.055-7.618-1.055H31.304v30.355
		h10.431c2.93,0,5.508-0.352,7.618-1.055s3.868-1.641,5.274-3.047c1.407-1.289,2.461-2.931,3.165-4.923
		C58.495,39.416,58.847,37.072,58.847,34.728z"/>
	<path class="st1" d="M120.374,18.436c-0.352,0-0.938,0.234-1.758,0.352s-1.992,0.352-3.399,0.586v61.531
		c1.407,0.234,2.579,0.47,3.399,0.587s1.406,0.352,1.758,0.352c0.352,0,0.586,0.117,0.703,0.117c1.992,0.469,2.93,1.641,2.93,3.633
		v6.915h-8.791H99.395h-8.907v-6.915c0-1.992,0.938-3.164,2.93-3.633c0.117,0,0.352-0.117,0.704-0.117
		c0.352-0.117,0.938-0.234,1.758-0.352s2.11-0.353,3.516-0.587V19.374c-1.406-0.234-2.696-0.469-3.516-0.586
		s-1.406-0.352-1.758-0.352c-0.352-0.117-0.586-0.117-0.704-0.117c-1.992-0.469-2.93-1.641-2.93-3.633V7.771h8.907h15.822h8.791
		v6.915c0,1.992-0.938,3.164-2.93,3.633C120.96,18.319,120.726,18.436,120.374,18.436z"/>
	<path class="st1" d="M202.765,7.771v8.204v4.336v9.729h-0.586h-1.406h-4.806c-1.523,0-2.344-0.82-2.695-2.228
		c-0.117-0.938-0.469-3.398-0.821-7.501h-27.308v23.441h28.715v12.188h-28.715v23.909h27.308c0.352-4.102,0.704-6.563,0.821-7.501
		c0.352-1.406,1.172-2.227,2.695-2.227h4.806h1.406h0.586v9.728v4.454v8.204h-53.444h-8.907v-6.915c0-1.992,0.938-3.164,2.93-3.633
		c0.117,0,0.352-0.117,0.704-0.117s0.938-0.234,1.758-0.352s2.11-0.353,3.516-0.587V19.374c-1.406-0.234-2.696-0.469-3.516-0.586
		s-1.406-0.352-1.758-0.352s-0.586-0.117-0.704-0.117c-1.992-0.469-2.93-1.641-2.93-3.633V7.771h8.907H202.765z"/>
	<path class="st1" d="M295.234,85.594v6.915h-1.641h-7.267h-6.915c-1.407,0-2.579-0.234-3.516-0.82
		c-0.938-0.586-1.641-1.289-2.344-2.344l-17.815-27.191c-0.703-1.055-1.406-1.641-2.227-2.109c-0.821-0.469-1.993-0.703-3.516-0.703
		h-5.978v21.564c1.407,0.234,2.696,0.47,3.516,0.587s1.407,0.352,1.758,0.352s0.586,0.117,0.703,0.117
		c1.992,0.469,2.93,1.641,2.93,3.633v6.915h-8.908h-15.705h-8.907v-6.915c0-1.992,0.938-3.164,2.93-3.633
		c0.117,0,0.352-0.117,0.704-0.117c0.352-0.117,0.938-0.234,1.758-0.352s2.11-0.353,3.516-0.587V19.374
		c-1.406-0.234-2.696-0.469-3.516-0.586s-1.406-0.352-1.758-0.352c-0.352,0-0.586-0.117-0.704-0.117
		c-1.992-0.469-2.93-1.641-2.93-3.633V7.771h8.907h24.964c5.743,0,10.783,0.586,14.885,1.758s7.501,2.93,10.079,5.04
		c2.579,2.109,4.688,4.805,5.86,7.735c1.289,3.047,1.875,6.211,1.875,9.845c0,2.812-0.469,5.509-1.289,8.087
		s-2.11,4.806-3.633,6.915s-3.516,3.867-5.86,5.392c-2.344,1.523-5.04,2.812-7.97,3.75c1.993,1.172,3.75,2.813,5.157,4.923
		l13.361,19.689c1.407,0.234,2.696,0.47,3.633,0.587c0.938,0.117,1.524,0.352,1.993,0.352s0.82,0.117,0.938,0.117
		C294.297,82.43,295.234,83.602,295.234,85.594z M266.285,43.87c1.406-1.29,2.461-2.931,3.165-4.688s1.055-3.751,1.055-5.86
		c0-4.336-1.406-7.618-4.219-9.962c-2.813-2.345-7.149-3.399-13.009-3.399h-9.259v28.129h9.025c2.93,0,5.508-0.469,7.735-1.172
		C263.003,46.214,264.879,45.159,266.285,43.87z"/>
	<path class="st1" d="M379.383,34.728c0,4.103-0.703,7.97-2.11,11.369c-1.406,3.398-3.399,6.329-6.094,8.79
		c-2.696,2.461-6.212,4.337-10.314,5.743s-8.908,1.992-14.416,1.992h-10.431v18.283c1.407,0.234,2.696,0.47,3.516,0.587
		s1.407,0.352,1.758,0.352s0.586,0.117,0.703,0.117c1.992,0.469,2.93,1.641,2.93,3.633v6.915h-8.908h-15.705h-8.907v-6.915
		c0-1.992,0.938-3.164,2.93-3.633c0.117,0,0.352-0.117,0.704-0.117c0.352-0.117,0.938-0.234,1.758-0.352s2.11-0.353,3.516-0.587
		V19.374c-1.406-0.234-2.696-0.469-3.516-0.586s-1.406-0.352-1.758-0.352c-0.352-0.117-0.586-0.117-0.704-0.117
		c-1.992-0.469-2.93-1.641-2.93-3.633V7.771h8.907h26.136c5.625,0,10.666,0.703,14.768,1.992s7.501,3.281,10.197,5.626
		c2.695,2.344,4.688,5.156,5.977,8.438C378.68,27.109,379.383,30.743,379.383,34.728z M363.561,34.728
		c0-2.227-0.352-4.219-1.055-6.095c-0.703-1.875-1.758-3.398-3.165-4.688c-1.406-1.289-3.164-2.227-5.274-2.931
		c-2.11-0.703-4.688-1.055-7.618-1.055h-10.431v30.355h10.431c2.93,0,5.508-0.352,7.618-1.055s3.868-1.641,5.274-3.047
		c1.407-1.289,2.461-2.931,3.165-4.923C363.208,39.416,363.561,37.072,363.561,34.728z"/>
	<path class="st1" d="M477.243,67.428c-2.109,5.273-4.922,9.845-8.673,13.712c-3.75,3.868-8.321,6.915-13.595,9.025
		c-5.274,2.109-11.018,3.281-17.464,3.281s-12.306-1.172-17.58-3.281c-5.274-2.11-9.845-5.157-13.596-9.025
		c-3.75-3.867-6.681-8.438-8.791-13.712c-2.109-5.274-3.047-11.135-3.047-17.347c0-6.211,0.938-11.954,3.047-17.229
		c2.11-5.274,5.041-9.845,8.791-13.713c3.751-3.867,8.321-6.915,13.596-9.024s11.134-3.282,17.58-3.282s12.189,1.055,17.464,3.282
		c5.273,2.227,9.845,5.157,13.595,9.024c3.751,3.868,6.563,8.438,8.673,13.713c2.11,5.274,3.165,11.018,3.165,17.229
		C480.408,56.293,479.353,62.153,477.243,67.428z M462.359,37.658c-1.173-3.751-2.931-6.798-5.274-9.377
		c-2.345-2.578-5.157-4.57-8.438-5.977c-3.282-1.407-7.032-1.993-11.135-1.993c-4.102,0-7.97,0.586-11.251,1.993
		c-3.282,1.406-6.095,3.398-8.438,5.977c-2.345,2.579-4.103,5.626-5.392,9.377c-1.289,3.75-1.875,7.735-1.875,12.423
		c0,4.688,0.586,8.791,1.875,12.541c1.289,3.751,3.047,6.798,5.392,9.376c2.344,2.579,5.156,4.571,8.438,5.978
		c3.281,1.406,7.149,1.992,11.251,1.992c4.103,0,7.853-0.586,11.135-1.992c3.281-1.406,6.094-3.398,8.438-5.978
		c2.344-2.578,4.102-5.625,5.274-9.376c1.172-3.75,1.875-7.853,1.875-12.541C464.234,45.394,463.531,41.408,462.359,37.658z"/>
	<path class="st1" d="M585.417,7.771v6.915c0,1.992-0.938,3.164-2.93,3.633c-0.117,0-0.352,0.117-0.703,0.117
		s-0.938,0.234-1.758,0.352s-1.993,0.352-3.399,0.586v73.135h-8.204c-1.289,0-2.227-0.234-3.047-0.586s-1.641-1.055-2.462-2.109
		l-44.302-56.375c0.117,1.289,0.234,2.461,0.234,3.634c0,1.172,0.117,2.344,0.117,3.398v40.435c4.922,0.704,7.384,1.056,7.618,1.056
		c1.992,0.469,2.93,1.641,2.93,3.633v6.915h-10.548h-13.83h-8.907v-6.915c0-1.992,0.938-3.164,2.93-3.633
		c0.117,0,0.352,0,0.703-0.117s0.938-0.234,1.758-0.352s2.11-0.353,3.517-0.587V19.374c-1.406-0.234-2.696-0.469-3.517-0.586
		s-1.406-0.352-1.758-0.352s-0.586-0.117-0.703-0.117c-1.992-0.469-2.93-1.641-2.93-3.633V7.771h8.907h8.204
		c0.703,0,1.289,0.117,1.758,0.117s0.938,0.117,1.289,0.352c0.352,0.117,0.703,0.352,1.055,0.703s0.703,0.82,1.173,1.406
		l44.536,56.609c-0.117-1.407-0.234-2.696-0.352-3.985c-0.117-1.289-0.117-2.578-0.117-3.75v-39.85
		c-4.922-0.703-7.384-1.055-7.618-1.055c-1.992-0.469-2.93-1.641-2.93-3.633V7.771h10.548h13.947H585.417z"/>
	<path class="st1" d="M671.205,7.771v20.041h-0.469h-1.406h-4.806c-1.523,0-2.461-0.82-2.812-2.227
		c-0.117-0.703-0.352-2.227-0.586-4.806h-17.229v60.125c1.406,0.234,2.578,0.47,3.398,0.587s1.406,0.352,1.758,0.352
		s0.587,0.117,0.704,0.117c1.992,0.469,3.047,1.641,3.047,3.633v6.915h-8.907h-15.822h-8.791v-6.915
		c0-1.992,0.938-3.164,2.931-3.633c0.117,0,0.352-0.117,0.703-0.117s0.938-0.234,1.758-0.352s1.992-0.353,3.399-0.587V20.663
		h-17.229c-0.234,2.579-0.469,4.22-0.586,4.923c-0.352,1.406-1.172,2.227-2.695,2.227h-4.923h-1.406h-0.469V7.771h1.758h0.117
		h66.688H671.205z"/>
</g>
<g>
</g>
<g>
</g>
<g>
</g>
<g>
</g>
<g>
</g>
<g>
</g>
</svg>
