<?xml version="1.0" encoding="utf-8"?>
<!-- Generator: Adobe Illustrator 22.0.1, SVG Export Plug-In . SVG Version: 6.00 Build 0)  -->
<svg version="1.1" id="Layer_1" xmlns="http://www.w3.org/2000/svg" xmlns:xlink="http://www.w3.org/1999/xlink" x="0px" y="0px"
	 viewBox="0 0 290.3 147.3" style="enable-background:new 0 0 290.3 147.3;" xml:space="preserve">
<style type="text/css">
	.st0{fill:#212121;}
	.st1{fill:#212121;stroke:#212121;stroke-width:2;stroke-miterlimit:10;}
</style>
<g>
</g>
<g>
	<g>
		<path class="st0" d="M22.4,75.3c4.6,0,8.3,1.2,11.1,3.5c2.8,2.3,4.2,5.3,4.2,9c0,3.7-1.4,6.7-4.2,9c-2.8,2.3-6.5,3.5-11.1,3.5
			h-6.6v5l4.9,0.9v5.5H1.8v-5.5l4.9-0.9V81.7l-4.9-0.9v-5.5h4.9H22.4z M15.8,93.3h6.6c1.9,0,3.5-0.5,4.6-1.6
			c1.1-1.1,1.7-2.3,1.7-3.8c0-1.5-0.6-2.8-1.7-3.9s-2.6-1.7-4.6-1.7h-6.6V93.3z"/>
		<path class="st0" d="M39.3,80.8v-5.5h18.8v5.5l-4.8,0.9v23.6l4.8,0.9v5.5H39.3v-5.5l4.9-0.9V81.7L39.3,80.8z"/>
		<path class="st0" d="M60.7,111.7v-5.5l4.9-0.9V81.7l-4.9-0.9v-5.5h4.9h26.6v11.1h-7l-0.3-4.2H74.7v8h14.3V96H74.7v8.7h10.2
			l0.3-4.2h7v11.1H60.7z"/>
		<path class="st0" d="M114.9,75.3c4.5,0,8,1,10.7,3s4,4.7,4,8.1c0,2-0.5,3.7-1.6,5.2c-1.1,1.5-2.7,2.6-4.8,3.5
			c2.2,0.6,3.8,1.7,4.8,3.2c1,1.5,1.5,3.3,1.5,5.5v2l2.8,0.5v5.5h-10c-0.8-0.4-1.4-1.1-1.6-2.2c-0.2-1.1-0.3-2.1-0.3-3.2v-2.5
			c0-1.7-0.4-2.9-1.3-3.8c-0.9-0.9-2.2-1.3-3.9-1.3h-5.6v6.7l4.8,0.9v5.5H95.8v-5.5l4.6-0.9V81.7l-4.6-0.9v-5.5h4.6H114.9z
			 M109.5,91.6h5.3c1.8,0,3.1-0.4,4.1-1.2c1-0.8,1.4-2,1.4-3.4c0-1.4-0.5-2.5-1.5-3.4c-1-0.9-2.3-1.3-4.1-1.3h-5.3V91.6z"/>
		<path class="st0" d="M155.4,75.3c4.6,0,8.3,1.2,11.1,3.5s4.2,5.3,4.2,9c0,3.7-1.4,6.7-4.2,9c-2.8,2.3-6.5,3.5-11.1,3.5h-6.6v5
			l4.9,0.9v5.5h-18.8v-5.5l4.9-0.9V81.7l-4.9-0.9v-5.5h4.9H155.4z M148.7,93.3h6.6c1.9,0,3.5-0.5,4.6-1.6c1.1-1.1,1.7-2.3,1.7-3.8
			c0-1.5-0.6-2.8-1.7-3.9s-2.6-1.7-4.6-1.7h-6.6V93.3z"/>
		<path class="st0" d="M206.5,96.2c0,4.8-1.5,8.6-4.6,11.6c-3,3-7,4.5-11.8,4.5s-8.8-1.5-11.9-4.5c-3.1-3-4.6-6.9-4.6-11.6v-5.4
			c0-4.7,1.5-8.6,4.6-11.6s7-4.5,11.8-4.5c4.8,0,8.8,1.5,11.8,4.5s4.6,6.8,4.6,11.6V96.2z M197.4,90.8c0-2.6-0.7-4.8-2-6.5
			s-3.1-2.5-5.3-2.5c-2.3,0-4.1,0.8-5.4,2.5s-1.9,3.8-1.9,6.5v5.4c0,2.7,0.6,4.9,1.9,6.6c1.3,1.7,3.1,2.6,5.4,2.6
			c2.2,0,4-0.9,5.3-2.6c1.3-1.7,2-3.9,2-6.6V90.8z"/>
		<path class="st0" d="M250.9,75.3v5.5l-4.9,0.9v30h-9.1l-14.2-22.5l-0.2,0.1v16l4.9,0.9v5.5h-18.8v-5.5l4.9-0.9V81.7l-4.9-0.9v-5.5
			h4.9h9.1l14.2,22.4l0.2-0.1V81.7l-4.8-0.9v-5.5h14H250.9z"/>
		<path class="st0" d="M288.8,75.3v11.5h-7l-0.4-4.6h-5.9v23l4.8,0.9v5.5h-18.8v-5.5l4.8-0.9v-23h-5.8l-0.3,4.6h-7V75.3H288.8z"/>
	</g>
	<g>
		<path class="st0" d="M64.3,145.7v-2.3l2.4-0.5v-15.7l-2.4-0.5v-2.3h2.4h2.9H72v2.3l-2.4,0.5v15.7h5.7l0.2-3.1H78v5.9H64.3z"/>
		<path class="st0" d="M97.8,136h-6.9v6.9h6.4l0.2-3.1h2.5v5.9H85.7v-2.3l2.4-0.5v-15.7l-2.4-0.5v-2.3H88H100v5.9h-2.5l-0.2-3.1
			h-6.4v6h6.9V136z"/>
		<path class="st0" d="M108,143.4l1.2-0.3l6-18.8h2.7l6,18.8l1.2,0.3v2.3h-5.7v-2.3l1.6-0.3l-0.7-2.3h-7.4l-0.7,2.3l1.6,0.3v2.3H108
			V143.4z M113.8,137.9h5.7l-2.8-9.1h-0.1L113.8,137.9z"/>
		<path class="st0" d="M146.3,124.3v5.9h-2.5l-0.2-3.1h-3.7v15.7l2.4,0.5v2.3h-7.7v-2.3l2.4-0.5v-15.7h-3.6l-0.2,3.1h-2.5v-5.9
			H146.3z"/>
		<path class="st0" d="M154,126.7v-2.3h7.7v2.3l-2.4,0.5v6.7h8.3v-6.7l-2.4-0.5v-2.3h2.4h2.9h2.4v2.3l-2.4,0.5v15.7l2.4,0.5v2.3
			h-7.7v-2.3l2.4-0.5v-6.2h-8.3v6.2l2.4,0.5v2.3H154v-2.3l2.4-0.5v-15.7L154,126.7z"/>
		<path class="st0" d="M192.5,136h-6.9v6.9h6.4l0.2-3.1h2.5v5.9h-14.3v-2.3l2.4-0.5v-15.7l-2.4-0.5v-2.3h2.4h11.9v5.9h-2.5l-0.2-3.1
			h-6.4v6h6.9V136z"/>
		<path class="st0" d="M211.9,124.3c2,0,3.6,0.5,4.7,1.6s1.6,2.6,1.6,4.6c0,1.1-0.2,2-0.7,2.8c-0.5,0.8-1.2,1.4-2.1,1.9
			c1,0.4,1.7,1,2.2,1.9c0.4,0.9,0.7,2,0.7,3.2v2.2v0.5l1.5,0.3v2.3h-4.1c-0.1-0.3-0.2-0.7-0.2-1.3c0-0.6,0-1.2,0-1.8v-2.1
			c0-1.1-0.3-2-0.8-2.6s-1.2-0.9-2.2-0.9H208v6l2.4,0.5v2.3h-7.7v-2.3l2.4-0.5v-15.7l-2.4-0.5v-2.3h2.4H211.9z M208,134.1h3.9
			c1.2,0,2-0.3,2.6-0.9c0.5-0.6,0.8-1.4,0.8-2.5c0-1.1-0.3-2-0.8-2.6c-0.6-0.6-1.4-1-2.6-1H208V134.1z"/>
	</g>
	<path class="st0" d="M172.7,28.3c-0.8-0.6-1.6-1.2-2.4-1.8c-1.2-0.8-2.5-1.1-4-1.1c-2.1,0-4.2,0.1-6.3,0.1c-1.1,0-2.3-1-2.6-2.1
		c-0.2-0.5,0-0.9,0.5-1c0.9-0.3,1.9-0.6,2.8-0.8c1-0.2,1.7-0.8,2.1-1.8c0.5-1.5,1.1-3,1.7-4.5c0.5-1.3,1.1-1.6,2.4-1.5
		c0.5,0,1,0.1,1.5,0c1.3-0.2,2.1-1.5,1.8-2.8c-0.4-1.4-1.4-2-2.8-1.5c-1.3,0.5-2.6,1-3.9,1.4c-0.7,0.2-1.3,0.7-1.6,1.3
		c-0.9,1.5-2.1,2.7-3.4,3.8c-2,1.6-4.7,1.3-6.4-0.6c-0.3-0.4-0.4-0.6,0.2-0.8c0.5-0.1,0.5-0.4,0.2-0.8c-0.3-0.4-0.5-0.9-0.8-1.3
		c-0.1-0.2-0.3-0.4-0.4-0.4c-1,0.2-1.8-0.5-2.6-0.8c-0.5-0.2-0.5-0.4-0.1-0.8c0.3-0.3,0.6-0.6,0.7-1c0.3-0.5,0.4-1.1,0.7-1.7
		c-0.2,0-0.5,0-0.8,0c-0.5,0-1.1,0.1-1.6,0.1c-0.4,0-0.8-0.3-0.8-0.9c0-0.6,0.3-0.8,0.8-0.9c0.5-0.1,0.9,0,1.1,0.5
		c0.1,0.3,0.3,0.5,0.7,0.4c1-0.4,1.9-1.7,1.9-2.8c0-0.6-0.2-1-0.9-1.1c-0.5-0.1-1-0.2-1.6-0.2c-1.6-0.3-3.1,0.6-4.3-0.5
		c-0.9-0.8-1.7-0.6-2.9-0.6h-1.6c-0.6,0-1.1-0.8-1.7-0.6c-0.4,0.2-0.9-0.4-1.4-0.4c-1.8,0.1-3.4,0.3-4.7,1.7
		c-0.3,0.3-0.6,0.3-0.9,0.6c-0.3,0.3-0.6,0.6-0.7,1c-0.1,0.4-0.3,0.6-0.7,0.7c-0.6,0.1-1.2,0.2-2,0.4c0.3,0.1,0.5,0.2,0.9,0.4
		c-0.4,0.3-0.6,0.4-0.8,0.6c0.1,0.1,0.2,0.2,0.3,0.2c0.5,0.3,0.4,0.6,0,0.9c-0.8,0.6-0.9,1.5-1.2,2.4c0,0.1,0.2,0.4,0.4,0.5
		c0.2,0.1,0.4,0.1,0.8,0.1c-0.1,0.2-0.3,0.4-0.4,0.5c-1.3,1.6-1.4,3.2,0,4.8c0.9,1,1.5,1.9,0.4,3.4c0.5-0.1,0.7-0.1,0.9-0.2
		c0.4-0.1,0.7-0.1,0.7,0.4c0,0.6,0.4,1,1,1.2c0.5,0.2,1,0.5,1.5,0.8c1.8,1.2,1.7,3.4-0.3,4.4c-0.2,0.1-0.4,0.3-0.5,0.5
		c0.3,0.1,0.5,0.3,0.8,0.2c0.9-0.2,1.8-0.6,2.7-0.9c0.4,0.7,1,1.4,1.4,2.2c0.1,0.2-0.1,0.6-0.1,1c0.1,0,0.4-0.1,0.7-0.1
		c0.9-0.1,1.1,0,1.2,0.9c0.2,2.6-0.3,5-1.8,7.3c-0.4,0.7-0.9,1.4-1.3,2.1c-0.7,1.2-0.9,2.6-0.1,3.8c1.7,2.7-0.3,5.9-3.2,6.5
		c-1.9,0.4-3.6-0.2-4.8-1.8c-1.3-1.7-1.7-3.7-2-5.7c-0.3-3.4,0.4-6.5,2.6-9.2c0.7-0.8,1.3-1.8,1.8-2.7c0.7-1.3,0.7-2.7,0.1-4.2
		c-0.5-1.1-0.9-2.2-1.3-3.3c-0.8-2.2-2.5-3.1-4.7-2.5c-0.4,0.1-0.9,0.3-1.3,0.5c-1.1,0.6-2.1,1-3.3,0.3c-0.3,0.4-0.1,0.7,0.2,0.9
		c0.6,0.6,0.6,0.9,0,1.5c-1.2,1.4-1.3,2.4-0.2,4c0.3,0.4,0.5,0.7,0.7,1.1c0.4,0.8-0.7,1.3-1.5,1.5c-0.3,0.1-1.7,0.1-1.7,0.1v0.1
		c2,0.8,3.7,0.4,4.2-1.1c0.3-0.8,0.8-0.8,1.4-0.3c0.5,0.4,1.2,0.6,1.8,0.4c-0.2-0.2-0.3-0.4-0.4-0.6c-0.7-0.9-0.5-2.2,0.4-2.8
		c0.7-0.5,1.9-0.5,2.5-0.1c0.8,0.5,1.3,1.5,1,2.5c-0.3,0.9-0.6,1.8-1.2,2.4c-2.1,2.4-3.2,5.1-3.5,8.3c-0.2,3.1,0,6.1,1.6,8.9
		c2.2,4,7.3,5.2,10.6,2.4c0.7-0.6,1.1-1.3,1.7-2c0.5-0.6,0.8-0.7,1.2-0.1c0.6,0.7,1.1,1.5,1.4,2.3c0.3,0.8,0.2,1.8-0.1,2.7
		c-0.3,0.7-1,0.7-1.5,1c-1.1,0.4-1.6,1.3-1.3,2.5c0.1,0.6,0.4,1.2,0.7,1.7c1.5,2.5,3.1,4.9,4.6,7.4c0.3,0.5,0.8,0.7,1.4,0.7
		c0.8,0,1.6,0,2.4,0c1.6,0,3.1,0,4.7,0c0.4,0,0.9-0.1,0.8-0.7c0-1.7-1.6-3.2-3.2-3.1c-0.3,0-0.6,0-0.9,0c-0.9-0.1-1.6-0.5-2-1.3
		c-0.8-2.1-0.9-5.3,1.4-7.1c1.7-1.4,2.2-3.1,1.8-5.2c-0.2-1.2-0.5-2.5-0.8-3.7c-0.1-0.7,0.1-1.1,0.7-0.9c1.1,0.2,2.2,0.4,3.2,0.9
		c1.6,0.8,1.7,2.1,0.5,3.4c-1,1.1-0.9,2,0.2,3c1.2,1,2.4,2.1,3.6,3.1c0.5,0.4,1,0.8,1.4,1.3c0.8,1.2,1.8,1.7,3.1,1.6
		c2.1-0.1,4.1-0.3,6.2-0.4c0.4,0,0.8-0.2,0.9-0.7c0.3-1.9-1.8-4-3.4-3.5c-1.4,0.4-2.6-0.1-3.7-1.1c-1.1-1-1.3-1.9-0.5-3.2
		c1.2-1.9,1.7-3.9,2-6.1c0.2-1.6-0.3-2.9-1.6-3.7c-0.6-0.4-1.3-0.7-2-1c-1.5-0.6-3-1.1-4.5-1.7c-0.8-0.4-1-0.8-0.5-1.6
		c0.7-1.1,1.5-2.2,2.3-3.3c0.3-0.4,0.6-0.4,1.1-0.1c0.9,0.6,2,0.8,3,0.5c1.2-0.3,2.3-0.8,3.5-1.1c1.1-0.3,2.2-0.7,3.3-0.9
		c0.9-0.2,1.4,0.1,1.8,0.8c0.7,1.2,1.9,1.8,3.2,1.6c1-0.2,1.6-0.9,1.9-1.8C173.6,29.5,173.3,28.8,172.7,28.3z"/>
	<line class="st1" x1="116.1" y1="66.1" x2="174.1" y2="66.1"/>
</g>
<g>
</g>
<g>
</g>
<g>
</g>
<g>
</g>
<g>
</g>
<g>
</g>
</svg>
