<?xml version="1.0" encoding="utf-8"?>
<!-- Generator: Adobe Illustrator 22.0.1, SVG Export Plug-In . SVG Version: 6.00 Build 0)  -->
<svg version="1.1" id="Layer_1" xmlns="http://www.w3.org/2000/svg" xmlns:xlink="http://www.w3.org/1999/xlink" x="0px" y="0px"
	 viewBox="0 0 219 253" style="enable-background:new 0 0 219 253;" xml:space="preserve">
<style type="text/css">
	.st0{fill:#424242;}
</style>
<path class="st0" d="M212.3248,107.80597c-2.95453-2.28302-5.77469-4.70032-8.9978-6.71475
	c-4.56607-2.9545-9.53494-4.02887-14.90677-3.89459c-7.92346,0.13431-15.84683,0.26862-23.77032,0.26862
	c-4.16312,0-8.46057-3.76028-9.66928-7.65485c-0.5372-2.01443-0.13425-3.35739,1.88019-3.89456
	c3.49164-1.07437,6.98337-2.28302,10.60938-3.08881c3.89459-0.94006,6.44614-2.9545,7.78909-6.84908
	c2.01443-5.6404,4.16315-11.28082,6.44617-16.92122c1.88019-4.70035,4.02887-6.0433,8.99783-5.64041
	c1.88016,0.13429,3.76025,0.40289,5.64041,0c4.83459-0.80577,7.92346-5.7747,6.58051-10.60934
	c-1.34296-5.23752-5.37183-7.52054-10.47504-5.64041c-4.83459,1.74585-9.80353,3.62599-14.63821,5.37183
	c-2.68591,0.94006-4.70035,2.55162-6.17755,4.96893c-3.22314,5.6404-7.78912,10.20645-12.75809,14.23532
	c-7.38623,6.04329-17.72702,4.83463-23.90457-2.41733c-1.34296-1.47725-1.4772-2.41733,0.53723-3.08881
	c1.74582-0.53719,1.74582-1.47725,0.80573-2.82019c-1.07434-1.61154-1.88016-3.35739-2.95453-4.96893
	c-0.40286-0.67148-1.20868-1.61154-1.61154-1.47725c-3.76025,0.94006-6.58051-1.74583-9.80356-2.9545
	c-1.74582-0.67148-1.74582-1.47725-0.40286-2.9545c1.07434-1.07437,2.01443-2.28304,2.68591-3.62598
	c0.94006-1.88014,1.61154-4.02887,2.4173-6.44618c-0.80576,0-1.88019,0-2.95453,0c-2.01443,0.13429-4.02887,0.40288-6.0433,0.13429
	c-1.61154-0.13429-2.82016-1.20866-2.9545-3.2231c-0.13428-2.01443,1.20868-2.82021,2.82016-3.35739
	c1.74582-0.53717,3.35739-0.13429,4.02887,1.88014c0.40286,1.20866,1.07434,1.88014,2.55164,1.34296
	c3.62601-1.34296,7.11765-6.31189,7.11765-10.34074c0-2.28304-0.94006-3.89458-3.35739-4.16316
	c-1.88016-0.26859-3.89459-0.53719-5.77469-0.94006c-5.90903-0.94008-11.68372,2.28302-15.98117-2.01443
	c-3.22311-3.2231-6.44617-2.14873-10.74365-2.14873h-6.17755c-2.14868,0-4.16312-2.9545-6.31189-2.14873
	c-1.61157,0.67148-3.49167-1.47725-5.23758-1.47725c-6.84903,0.2686-12.75806,1.20866-17.45839,6.44618
	c-1.07436,1.07436-2.41731,1.20866-3.35739,2.41731c-1.07434,1.20866-2.1487,2.28304-2.4173,3.89458
	c-0.40288,1.61154-1.07436,2.28302-2.55165,2.55162c-2.28304,0.40288-4.56607,0.67146-7.38625,1.74583
	c0.94008,0.40288,2.01443,0.80577,3.49165,1.61154c-1.47722,1.20866-2.1487,1.74585-2.95453,2.28302
	c0.40288,0.2686,0.67148,0.67148,0.94009,0.80577c1.74582,1.07437,1.61156,2.14873,0.13426,3.35739
	c-2.82018,2.28302-3.49165,5.64041-4.29747,8.86349c-0.13426,0.53719,0.80574,1.61156,1.47722,2.01443
	c0.67148,0.40289,1.61156,0.2686,2.95451,0.40289c-0.53722,0.80577-0.94009,1.47725-1.34296,2.01442
	c-4.83461,6.0433-5.10321,11.9523,0,17.86131c3.22313,3.76027,5.77469,7.25195,1.61156,12.75806
	c1.74583-0.26859,2.68591-0.40289,3.49165-0.67148c1.47722-0.40289,2.4173-0.26859,2.55165,1.61154
	c0.13426,2.41733,1.61156,3.76028,3.62599,4.70035c1.88017,0.94006,3.89459,1.74585,5.64043,2.9545
	c6.84904,4.56604,6.17757,12.62378-0.94009,16.38403c-0.80574,0.40289-1.34296,1.34296-1.88016,2.01443
	c0.94008,0.26859,2.01442,1.07437,2.82016,0.80576c3.35738-0.94006,6.58052-2.14871,10.20644-3.35736
	c1.61154,2.55161,3.62598,5.23752,5.10321,8.32629c0.5372,0.80579-0.26862,2.41733-0.53723,3.62598
	c0.53723-0.13428,1.47723-0.26859,2.55167-0.40289c3.22311-0.53717,4.16312,0.13431,4.43173,3.4917
	c0.94006,9.80356-1.20871,18.93564-6.58054,27.12769c-1.74582,2.55161-3.35736,5.10321-4.70032,7.78912
	c-2.4173,4.56604-3.22314,9.66928-0.40289,14.10104c6.17758,9.93784-0.94006,22.02444-11.81796,24.30746
	c-7.252,1.47726-13.29529-0.94006-17.99564-6.71475c-4.96895-6.17761-6.58051-13.69815-7.38625-21.353
	c-1.34296-12.75806,1.61156-24.30746,9.80356-34.37961c2.55164-3.22311,4.70033-6.71478,6.71477-10.20645
	c2.82018-4.96893,2.82018-10.20645,0.53722-15.57828c-1.74582-4.16315-3.49165-8.32632-4.96895-12.48947
	c-2.95451-8.05774-9.26642-11.54942-17.4584-9.2664c-1.61157,0.40289-3.22308,1.07437-4.83466,1.88014
	c-3.89455,2.14871-7.92342,3.76028-12.35519,1.20865c-1.07434,1.61154-0.13431,2.55164,0.67148,3.4917
	c2.14874,2.14871,2.14874,3.49167,0.13431,5.77469c-4.56604,5.23755-4.83464,9.13211-0.67148,14.9068
	c0.94008,1.34296,1.88013,2.82019,2.68591,4.29745c1.47725,2.9545-2.41731,4.83463-5.50613,5.77472
	c-1.07434,0.26859-6.58046,0.26859-6.58046,0.40289v0.53717c7.52055,3.08881,13.83241,1.34296,15.71259-4.29745
	c1.07434-3.08881,2.95451-3.08881,5.37181-1.20865c1.74583,1.47723,4.43173,2.28302,6.84904,1.47723
	c-0.80574-0.80576-1.07436-1.47723-1.61157-2.14871c-2.55161-3.22311-1.74582-8.19202,1.47722-10.47507
	c2.68591-1.88013,6.98338-1.88013,9.53494-0.26859c2.95451,2.01443,4.83461,5.77472,3.76025,9.26639
	c-1.07434,3.22311-2.28304,6.71478-4.56607,9.13211c-7.92346,8.99777-12.08659,19.20422-12.89238,31.29083
	c-0.80577,11.68369,0.13431,22.96454,5.909,33.30527c8.32634,14.9068,27.3963,19.33853,39.88576,8.86353
	c2.4173-2.01443,4.16315-4.96893,6.31192-7.52057c1.74582-2.14874,2.9545-2.55161,4.56607-0.40289
	c2.01443,2.68591,4.02887,5.64041,5.23755,8.72922c1.20871,3.22308,0.80576,6.71475-0.40286,9.93784
	c-1.07434,2.68591-3.62601,2.68591-5.77469,3.62598c-4.02887,1.74585-5.77469,4.83466-4.83459,9.26639
	c0.5372,2.14874,1.34296,4.43176,2.4173,6.31189c5.64041,9.26636,11.4151,18.53278,17.32413,27.79913
	c1.20871,1.88013,2.95453,2.82022,5.23758,2.68591c2.9545,0,5.90903,0,8.9978,0c5.77469,0,11.68372,0,17.4584,0
	c1.61157,0,3.22311-0.26859,3.22311-2.55161c0-6.58047-5.90903-12.08658-12.22083-11.54941
	c-1.07437,0.13431-2.14871,0.13431-3.35739,0c-3.22314-0.26859-6.0433-1.74585-7.25198-4.96893
	c-3.08881-8.05774-3.35739-19.74142,5.3718-26.72479c6.17758-5.10321,8.32635-11.54941,6.9834-19.33853
	c-0.80576-4.70035-2.01443-9.26639-2.95453-13.96671c-0.5372-2.68591,0.26862-4.02887,2.55164-3.4917
	c4.02887,0.80579,8.19202,1.61154,11.95233,3.35739c5.90903,2.82019,6.44617,7.92343,1.88019,12.62375
	c-3.76025,4.02887-3.49167,7.52057,0.5372,11.14655c4.56607,3.89456,8.9978,7.78912,13.42953,11.81799
	c1.74585,1.61154,3.89462,3.08881,5.10321,5.10324c2.82019,4.56604,6.84906,6.31186,11.68375,6.17758
	c7.65485-0.26859,15.30969-0.94006,23.09882-1.47726c1.61157-0.13428,2.95453-0.67148,3.22314-2.55161
	c0.94006-7.25192-6.71478-14.9068-12.89233-13.29523c-5.37183,1.47726-9.80356-0.40289-13.83243-4.02887
	c-4.16312-3.89456-4.83459-7.11765-1.74582-11.95227c4.43173-6.98337,6.44617-14.63821,7.52051-22.69592
	c0.80576-6.0433-1.34296-10.74365-6.17755-13.96674c-2.28305-1.47726-4.83459-2.68591-7.38626-3.62598
	c-5.64041-2.28302-11.4151-4.02884-17.05554-6.44617c-3.22311-1.34296-3.76025-2.9545-1.88016-5.909
	c2.68591-4.29745,5.77469-8.19205,8.72922-12.35519c1.07434-1.47723,2.4173-1.34296,4.02884-0.53717
	c3.49167,2.14871,7.38626,2.82019,11.41513,1.88013c4.43173-1.07437,8.72919-2.82019,13.29529-4.16315
	c4.16312-1.34296,8.32632-2.55164,12.48944-3.4917c3.35739-0.67148,5.23755,0.26859,6.71478,2.9545
	c2.4173,4.43176,7.11765,6.84906,12.08658,6.17758c3.76025-0.53717,5.77469-3.49167,6.9834-6.84906
	C215.95081,112.10345,214.60785,109.68613,212.3248,107.80597z"/>
</svg>
