<?xml version="1.0" encoding="utf-8"?>
<!-- Generator: Adobe Illustrator 22.0.1, SVG Export Plug-In . SVG Version: 6.00 Build 0)  -->
<svg version="1.1" id="Layer_1" xmlns="http://www.w3.org/2000/svg" xmlns:xlink="http://www.w3.org/1999/xlink" x="0px" y="0px"
	 viewBox="0 0 500 36.8" style="enable-background:new 0 0 500 36.8;" xml:space="preserve">
<style type="text/css">
	.st0{fill:#212121;}
</style>
<g>
	<path class="st0" d="M17.9,2c3.8,0,6.9,1,9.1,3c2.2,2,3.3,4.5,3.3,7.7c0,3.1-1.1,5.7-3.3,7.6s-5.2,2.9-9.1,2.9h-7.7v7.6l4.6,0.8
		v3.6H0v-3.6l4.6-0.8V6.5L0,5.7V2h4.6H17.9z M10.3,18.9h7.7c2.2,0,3.9-0.6,5-1.8c1.1-1.2,1.7-2.6,1.7-4.4c0-1.7-0.6-3.2-1.7-4.5
		c-1.1-1.2-2.8-1.9-5-1.9h-7.7V18.9z"/>
	<path class="st0" d="M32.5,5.7V2h14.9v3.6l-4.6,0.8v24.4l4.6,0.8v3.6H32.5v-3.6l4.6-0.8V6.5L32.5,5.7z"/>
	<path class="st0" d="M73.5,20.1H60v10.8h12.4l0.5-4.8h4.8v9.1H49.8v-3.6l4.6-0.8V6.5l-4.6-0.8V2h4.6h23.2v9.2h-4.8l-0.4-4.8H60v9.3
		h13.4V20.1z"/>
	<path class="st0" d="M99.1,2c3.9,0,6.9,0.9,9,2.6c2.1,1.7,3.2,4.1,3.2,7.2c0,1.7-0.5,3.1-1.4,4.3c-0.9,1.2-2.3,2.2-4.1,2.9
		c2,0.6,3.4,1.5,4.3,2.9c0.9,1.4,1.3,3,1.3,5v3.4v0.8l2.8,0.5v3.6h-7.9c-0.2-0.4-0.4-1.1-0.4-2.1c-0.1-0.9-0.1-1.9-0.1-2.9V27
		c0-1.7-0.5-3-1.5-4c-1-0.9-2.4-1.4-4.3-1.4h-8.4v9.3l4.6,0.8v3.6H81.3v-3.6l4.6-0.8V6.5l-4.6-0.8V2h4.6H99.1z M91.6,17.2h7.5
		c2.3,0,3.9-0.4,5-1.3c1.1-0.9,1.6-2.2,1.6-3.8c0-1.7-0.5-3.1-1.6-4.1c-1.1-1-2.7-1.5-5-1.5h-7.5V17.2z"/>
	<path class="st0" d="M134.2,2c3.8,0,6.9,1,9.1,3c2.2,2,3.3,4.5,3.3,7.7c0,3.1-1.1,5.7-3.3,7.6s-5.2,2.9-9.1,2.9h-7.7v7.6l4.6,0.8
		v3.6h-14.9v-3.6l4.6-0.8V6.5l-4.6-0.8V2h4.6H134.2z M126.6,18.9h7.7c2.2,0,3.9-0.6,5-1.8c1.1-1.2,1.7-2.6,1.7-4.4
		c0-1.7-0.6-3.2-1.7-4.5c-1.1-1.2-2.8-1.9-5-1.9h-7.7V18.9z"/>
	<path class="st0" d="M180.2,19.4c0,4.9-1.4,8.8-4.1,11.8c-2.7,3-6.3,4.5-10.7,4.5s-8-1.5-10.7-4.5c-2.8-3-4.1-6.9-4.1-11.8v-1.5
		c0-4.8,1.4-8.7,4.1-11.8c2.7-3,6.3-4.5,10.7-4.5c4.4,0,8,1.5,10.7,4.5s4.1,6.9,4.1,11.8V19.4z M174.6,17.9c0-3.7-0.8-6.6-2.5-8.7
		C170.4,7,168.2,6,165.3,6c-2.9,0-5.1,1.1-6.7,3.2c-1.6,2.1-2.4,5-2.4,8.7v1.6c0,3.8,0.8,6.7,2.5,8.8c1.7,2.1,3.9,3.2,6.8,3.2
		c2.9,0,5.1-1.1,6.8-3.2s2.5-5,2.5-8.8V17.9z"/>
	<path class="st0" d="M219.3,2v3.6l-4.6,0.8v28.8h-5.6l-16.8-24.5l-0.2,0.1v20l4.6,0.8v3.6h-14.9v-3.6l4.6-0.8V6.5l-4.6-0.8V2h4.6
		h5.6l16.8,24.5l0.2-0.1v-20l-4.6-0.8V2h10.2H219.3z"/>
	<path class="st0" d="M252.4,2v9.2h-4.8l-0.4-4.8h-7.2v24.4l4.6,0.8v3.6h-14.9v-3.6l4.6-0.8V6.4h-7.1l-0.4,4.8H222V2H252.4z"/>
	<path class="st0" d="M269.4,35.2v-3.6l4.6-0.8V6.5l-4.6-0.8V2h4.6h5.6h4.6v3.6l-4.6,0.8v24.4h11.1l0.5-4.8h4.8v9.1H269.4z"/>
	<path class="st0" d="M322.5,20.1H309v10.8h12.4l0.5-4.8h4.8v9.1h-27.8v-3.6l4.6-0.8V6.5l-4.6-0.8V2h4.6h23.2v9.2h-4.8l-0.4-4.8H309
		v9.3h13.4V20.1z"/>
	<path class="st0" d="M330.1,31.6l2.3-0.4L344.2,2h5.3l11.7,29.2l2.3,0.4v3.6h-11.1v-3.6l3-0.5l-1.4-3.5h-14.5l-1.4,3.5l3.1,0.5v3.6
		h-11.2V31.6z M341.3,23.2h11.1L346.9,9h-0.2L341.3,23.2z"/>
	<path class="st0" d="M392.3,2v9.2h-4.8l-0.4-4.8h-7.2v24.4l4.6,0.8v3.6h-14.9v-3.6l4.6-0.8V6.4h-7.1l-0.4,4.8H362V2H392.3z"/>
	<path class="st0" d="M395.1,5.7V2H410v3.6l-4.6,0.8v10.4h16.1V6.5l-4.6-0.8V2h4.6h5.6h4.6v3.6l-4.6,0.8v24.4l4.6,0.8v3.6h-14.9
		v-3.6l4.6-0.8v-9.6h-16.1v9.6l4.6,0.8v3.6h-14.9v-3.6l4.6-0.8V6.5L395.1,5.7z"/>
	<path class="st0" d="M457.8,20.1h-13.4v10.8h12.4l0.5-4.8h4.8v9.1h-27.9v-3.6l4.6-0.8V6.5l-4.6-0.8V2h4.6H462v9.2h-4.8l-0.4-4.8
		h-12.4v9.3h13.4V20.1z"/>
	<path class="st0" d="M483.4,2c3.9,0,6.9,0.9,9,2.6c2.1,1.7,3.2,4.1,3.2,7.2c0,1.7-0.5,3.1-1.4,4.3c-0.9,1.2-2.3,2.2-4.1,2.9
		c2,0.6,3.4,1.5,4.3,2.9c0.9,1.4,1.3,3,1.3,5v3.4v0.8l2.8,0.5v3.6h-7.9c-0.2-0.4-0.4-1.1-0.4-2.1c-0.1-0.9-0.1-1.9-0.1-2.9V27
		c0-1.7-0.5-3-1.5-4c-1-0.9-2.4-1.4-4.3-1.4h-8.4v9.3l4.6,0.8v3.6h-14.9v-3.6l4.6-0.8V6.5l-4.6-0.8V2h4.6H483.4z M475.9,17.2h7.5
		c2.3,0,3.9-0.4,5-1.3c1.1-0.9,1.6-2.2,1.6-3.8c0-1.7-0.5-3.1-1.6-4.1c-1.1-1-2.7-1.5-5-1.5h-7.5V17.2z"/>
</g>
<g>
</g>
<g>
</g>
<g>
</g>
<g>
</g>
<g>
</g>
<g>
</g>
</svg>
