<?xml version="1.0" encoding="utf-8"?>
<!-- Generator: Adobe Illustrator 22.0.1, SVG Export Plug-In . SVG Version: 6.00 Build 0)  -->
<svg version="1.1" id="Layer_1" xmlns="http://www.w3.org/2000/svg" xmlns:xlink="http://www.w3.org/1999/xlink" x="0px" y="0px"
	 viewBox="0 0 1296.9 93.5" style="enable-background:new 0 0 1296.9 93.5;" xml:space="preserve">
<style type="text/css">
	.st0{fill:#565656;}
	.st1{fill:#212121;}
</style>
<g>
	<path class="st0" d="M931.7-418.8l129-151.2h18.7L941.1-409.4l143.6,167.5h-18.4l-134.5-158l-135.1,158h-17.8l143.6-167.5
		L784-570.1h18.7L931.7-418.8z"/>
</g>
<path class="st1" d="M354.6-202.8c-2.1-1.6-4.1-3.3-6.3-4.7c-3.2-2.1-6.8-2.9-10.5-2.8c-5.6,0.1-11.2,0.2-16.8,0.2
	c-2.9,0-6-2.6-6.9-5.4c-0.4-1.4-0.1-2.3,1.4-2.8c2.5-0.7,5-1.6,7.5-2.2c2.7-0.6,4.6-2.1,5.5-4.9c1.4-4,3-8,4.5-12
	c1.3-3.3,2.8-4.3,6.3-4c1.3,0.1,2.7,0.2,4,0c3.4-0.5,5.6-4.1,4.7-7.5c-1-3.7-3.8-5.3-7.5-4c-3.5,1.3-6.9,2.6-10.4,3.8
	c-1.9,0.7-3.3,1.8-4.3,3.5c-2.3,4-5.5,7.2-9,10.1c-5.2,4.3-12.5,3.4-17-1.7c-0.9-1-1.1-1.7,0.4-2.2c1.2-0.3,1.2-1,0.6-2
	c-0.8-1.1-1.3-2.4-2.1-3.6c-0.3-0.4-0.8-1.1-1.1-1c-2.7,0.6-4.7-1.2-6.9-2.1c-1.3-0.5-1.2-1.1-0.3-2.1c0.7-0.8,1.5-1.6,1.9-2.5
	c0.7-1.3,1.1-2.9,1.7-4.5c-0.6,0-1.3,0-2,0c-1.4,0-2.9,0.3-4.3,0.1c-1.2-0.1-2-0.9-2.1-2.3c-0.1-1.5,0.9-2,2-2.4
	c1.3-0.4,2.3-0.1,2.9,1.3c0.3,0.9,0.8,1.3,1.8,1c2.6-0.9,5-4.5,5-7.4c0-1.6-0.6-2.7-2.3-3c-1.4-0.2-2.8-0.4-4.1-0.6
	c-4.2-0.7-8.2,1.6-11.3-1.4c-2.3-2.2-4.6-1.5-7.6-1.5h-4.3c-1.5,0-3-2.1-4.5-1.5c-1.2,0.4-2.5-1.1-3.7-1c-4.8,0.2-9,0.9-12.4,4.5
	c-0.7,0.8-1.7,0.8-2.4,1.7c-0.7,0.9-1.5,1.7-1.8,2.7c-0.3,1.2-0.8,1.6-1.8,1.8c-1.6,0.3-3.2,0.5-5.2,1.2c0.7,0.3,1.4,0.6,2.4,1.1
	c-1.1,0.9-1.5,1.2-2,1.6c0.2,0.2,0.4,0.4,0.7,0.6c1.2,0.8,1.2,1.5,0.1,2.4c-2,1.6-2.5,4-3.1,6.3c-0.1,0.4,0.6,1.1,1.1,1.4
	c0.5,0.3,1.2,0.2,2.1,0.3c-0.4,0.6-0.7,1-1,1.4c-3.4,4.3-3.6,8.5,0,12.6c2.3,2.7,4.1,5.1,1.2,9c1.3-0.2,1.9-0.3,2.5-0.5
	c1-0.3,1.8-0.2,1.8,1.1c0.1,1.7,1.1,2.6,2.6,3.3c1.4,0.6,2.8,1.2,4,2.1c4.8,3.2,4.4,9-0.7,11.6c-0.5,0.3-0.9,0.9-1.4,1.4
	c0.7,0.2,1.4,0.7,2,0.6c2.4-0.6,4.7-1.5,7.2-2.3c1.1,1.8,2.5,3.7,3.7,5.9c0.3,0.6-0.2,1.7-0.4,2.6c0.4-0.1,1.1-0.2,1.8-0.3
	c2.3-0.4,2.9,0.1,3.1,2.5c0.6,7-0.8,13.4-4.7,19.2c-1.2,1.8-2.3,3.6-3.4,5.5c-1.8,3.3-2.3,6.8-0.3,10c4.4,7.1-0.7,15.6-8.4,17.2
	c-5.2,1.1-9.5-0.6-12.8-4.8c-3.5-4.4-4.6-9.7-5.2-15.2c-0.9-9.1,1.2-17.2,6.9-24.3c1.8-2.2,3.4-4.7,4.8-7.2c2-3.6,2-7.3,0.4-11
	c-1.3-2.9-2.4-5.9-3.5-8.9c-2.1-5.7-6.6-8.2-12.4-6.5c-1.2,0.3-2.3,0.8-3.4,1.4c-2.8,1.5-5.6,2.7-8.7,0.8c-0.7,1.2-0.1,1.8,0.5,2.5
	c1.5,1.6,1.6,2.4,0.1,4.1c-3.3,3.7-3.4,6.5-0.5,10.5c0.7,1,1.4,2,1.9,3c1,2.1-1.7,3.4-3.9,4.1c-0.8,0.2-4.6,0.2-4.6,0.3v0.3
	c5.3,2.2,9.8,0.9,11.2-3c0.7-2.1,2-2.2,3.8-0.8c1.3,1,3.1,1.6,4.9,1c-0.5-0.6-0.7-1-1.1-1.5c-1.9-2.3-1.3-5.8,1-7.4
	c1.9-1.3,4.9-1.4,6.7-0.2c2.1,1.4,3.5,4.1,2.7,6.5c-0.7,2.3-1.7,4.7-3.2,6.5c-5.6,6.3-8.6,13.7-9.2,22.1c-0.6,8.3,0.1,16.3,4.2,23.6
	c5.9,10.6,19.4,13.7,28.2,6.3c1.7-1.5,3-3.5,4.4-5.3c1.2-1.5,2.1-1.8,3.2-0.3c1.5,1.9,2.8,4,3.7,6.2c0.9,2.2,0.6,4.7-0.3,7
	c-0.7,1.9-2.6,1.9-4.1,2.6c-2.9,1.2-4.1,3.5-3.4,6.6c0.4,1.5,0.9,3.1,1.8,4.4c4,6.6,8.1,13.1,12.2,19.7c0.8,1.4,2.1,2,3.7,1.9
	c2.1,0,4.2,0,6.4,0c4.1,0,8.2,0,12.4,0c1.2,0,2.3-0.2,2.2-1.8c0-4.6-4.2-8.6-8.6-8.2c-0.8,0.1-1.6,0.1-2.3,0
	c-2.3-0.2-4.3-1.2-5.2-3.5c-2.2-5.7-2.3-14,3.8-19c4.4-3.6,5.9-8.2,4.9-13.7c-0.6-3.3-1.4-6.6-2.1-9.9c-0.4-1.9,0.2-2.8,1.8-2.5
	c2.9,0.6,5.8,1.1,8.4,2.4c4.2,2,4.6,5.6,1.3,9c-2.7,2.8-2.5,5.4,0.4,7.9c3.2,2.7,6.4,5.6,9.5,8.3c1.2,1.1,2.7,2.1,3.6,3.6
	c2,3.2,4.8,4.5,8.3,4.4c5.5-0.2,10.9-0.7,16.3-1.1c1.1-0.1,2.1-0.5,2.3-1.8c0.7-5.1-4.8-10.5-9.1-9.4c-3.8,1-7-0.3-9.8-2.9
	c-3-2.7-3.4-5-1.2-8.4c3.1-4.9,4.6-10.4,5.4-16.1c0.6-4.2-0.9-7.6-4.4-9.9c-1.6-1.1-3.4-1.9-5.2-2.6c-4-1.6-8.1-2.9-12-4.5
	c-2.2-0.9-2.6-2.1-1.3-4.2c1.9-3,4.1-5.8,6.2-8.7c0.7-1,1.7-1,2.8-0.3c2.5,1.5,5.3,2,8.1,1.3c3.2-0.8,6.2-2,9.4-2.9
	c2.9-0.9,5.9-1.8,8.8-2.5c2.4-0.5,3.7,0.2,4.8,2.1c1.7,3.1,5.1,4.9,8.6,4.4c2.7-0.4,4.1-2.5,5-4.8
	C357.2-199.7,356.3-201.5,354.6-202.8z"/>
<g>
	<path class="st1" d="M50,3.8c10,0,17.9,2.6,23.6,7.7c5.8,5.1,8.7,11.8,8.7,19.9s-2.9,14.8-8.7,19.9S59.9,59,50,59H30v19.7l12.1,2.1
		v9.3H3.4v-9.3l12-2.1V15.3l-12-2.1V3.8h12H50z M30,47.6H50c5.8,0,10.1-1.6,13.1-4.7c3-3.1,4.4-6.9,4.4-11.3c0-4.5-1.5-8.4-4.4-11.6
		c-3-3.2-7.3-4.8-13.1-4.8H30V47.6z"/>
	<path class="st1" d="M87.3,13.2V3.8H126v9.4l-12.1,2.1v63.4l12.1,2.1v9.3H87.3v-9.3l12.1-2.1V15.3L87.3,13.2z"/>
	<path class="st1" d="M193.4,50.9h-35v28h32.2l1.2-12.5h12.4v23.8h-72.4v-9.3l12.1-2.1V15.3l-12.1-2.1V3.8h12.1h60.4v23.9h-12.5
		l-1.1-12.5h-32.2v24.3h35V50.9z"/>
	<path class="st1" d="M259.4,3.8c10.1,0,18,2.2,23.5,6.7c5.6,4.4,8.3,10.7,8.3,18.7c0,4.4-1.2,8.1-3.7,11.3c-2.4,3.1-6,5.6-10.8,7.6
		c5.1,1.5,8.8,4,11.1,7.6c2.2,3.6,3.4,7.9,3.4,13.1v8.7v2.1l7.3,1.3v9.3H278c-0.6-1.1-1-2.9-1.1-5.3c-0.1-2.4-0.2-4.9-0.2-7.5v-8.6
		c0-4.4-1.3-7.9-3.9-10.4c-2.6-2.5-6.3-3.7-11.1-3.7h-21.8v24.1l12.1,2.1v9.3h-38.7v-9.3l12.1-2.1V15.3l-12.1-2.1V3.8h12.1H259.4z
		 M239.8,43.2h19.6c5.9,0,10.3-1.2,13-3.5c2.8-2.3,4.1-5.7,4.1-10c0-4.5-1.4-8.1-4.2-10.7c-2.8-2.6-7.1-3.9-13-3.9h-19.6V43.2z"/>
	<path class="st1" d="M350.3,3.8c10,0,17.9,2.6,23.6,7.7c5.8,5.1,8.7,11.8,8.7,19.9s-2.9,14.8-8.7,19.9S360.3,59,350.3,59h-19.9
		v19.7l12.1,2.1v9.3h-38.7v-9.3l12-2.1V15.3l-12-2.1V3.8h12H350.3z M330.4,47.6h19.9c5.8,0,10.1-1.6,13.1-4.7
		c3-3.1,4.4-6.9,4.4-11.3c0-4.5-1.5-8.4-4.4-11.6c-3-3.2-7.3-4.8-13.1-4.8h-19.9V47.6z"/>
	<path class="st1" d="M469.3,49c0,12.6-3.6,22.9-10.7,30.7c-7.1,7.8-16.4,11.7-27.9,11.7c-11.5,0-20.8-3.9-27.9-11.7
		c-7.2-7.8-10.7-18-10.7-30.6v-4c0-12.5,3.6-22.7,10.7-30.6c7.1-7.9,16.4-11.8,27.9-11.8c11.5,0,20.8,3.9,28,11.8
		c7.2,7.9,10.8,18.1,10.8,30.6V49z M454.7,44.9c0-9.7-2.2-17.3-6.5-22.7c-4.3-5.5-10.2-8.2-17.7-8.2c-7.5,0-13.3,2.7-17.6,8.2
		c-4.2,5.5-6.4,13.1-6.4,22.7V49c0,9.8,2.1,17.4,6.4,22.9c4.3,5.5,10.2,8.2,17.6,8.2c7.5,0,13.3-2.7,17.6-8.2
		c4.3-5.5,6.4-13.1,6.4-22.9V44.9z"/>
	<path class="st1" d="M570.5,3.8v9.4l-12.1,2.1v74.8h-14.5l-43.7-63.6l-0.4,0.1v52.1l12.1,2.1v9.3h-38.7v-9.3l12.1-2.1V15.3
		l-12.1-2.1V3.8h12.1h14.6l43.7,63.6l0.4-0.1v-52l-12.1-2.1V3.8h26.6H570.5z"/>
	<path class="st1" d="M655.9,3.8v23.9h-12.4l-1.1-12.5h-18.8v63.6l12.1,2.1v9.3h-38.7v-9.3l12.1-2.1V15.2h-18.4l-1,12.5H577V3.8
		H655.9z"/>
	<path class="st1" d="M700.3,90.1v-9.3l12.1-2.1V15.3l-12.1-2.1V3.8h12.1h14.6H739v9.4l-12.1,2.1v63.6h28.9l1.2-12.5h12.4v23.8
		H700.3z"/>
	<path class="st1" d="M837.8,50.9h-35v28h32.2l1.2-12.5h12.4v23.8h-72.4v-9.3l12.1-2.1V15.3l-12.1-2.1V3.8h12.1h60.4v23.9H836
		l-1.1-12.5h-32.2v24.3h35V50.9z"/>
	<path class="st1" d="M857.1,80.8l6-1l30.6-75.9h13.7l30.5,75.9l6,1v9.3h-29v-9.3l7.9-1.3l-3.6-9.2h-37.6l-3.6,9.2l8,1.3v9.3h-29
		V80.8z M886,58.9h28.9l-14.3-37h-0.4L886,58.9z"/>
	<path class="st1" d="M1018.2,3.8v23.9h-12.4l-1.1-12.5h-18.8v63.6l12.1,2.1v9.3h-38.7v-9.3l12.1-2.1V15.2h-18.4l-1,12.5h-12.5V3.8
		H1018.2z"/>
	<path class="st1" d="M1024.8,13.2V3.8h38.7v9.4l-12.1,2.1v27.1h41.9V15.3l-12.1-2.1V3.8h12.1h14.7h12.1v9.4l-12.1,2.1v63.4
		l12.1,2.1v9.3h-38.8v-9.3l12.1-2.1v-25h-41.9v25l12.1,2.1v9.3h-38.7v-9.3l12.1-2.1V15.3L1024.8,13.2z"/>
	<path class="st1" d="M1187.5,50.9h-35v28h32.2l1.2-12.5h12.4v23.8h-72.4v-9.3l12.1-2.1V15.3l-12.1-2.1V3.8h12.1h60.4v23.9h-12.5
		l-1.1-12.5h-32.2v24.3h35V50.9z"/>
	<path class="st1" d="M1253.5,3.8c10.1,0,18,2.2,23.5,6.7c5.6,4.4,8.3,10.7,8.3,18.7c0,4.4-1.2,8.1-3.7,11.3
		c-2.4,3.1-6,5.6-10.8,7.6c5.1,1.5,8.8,4,11.1,7.6c2.2,3.6,3.4,7.9,3.4,13.1v8.7v2.1l7.3,1.3v9.3h-20.6c-0.6-1.1-1-2.9-1.1-5.3
		c-0.1-2.4-0.2-4.9-0.2-7.5v-8.6c0-4.4-1.3-7.9-3.9-10.4c-2.6-2.5-6.3-3.7-11.1-3.7H1234v24.1l12.1,2.1v9.3h-38.7v-9.3l12.1-2.1
		V15.3l-12.1-2.1V3.8h12.1H1253.5z M1234,43.2h19.6c5.9,0,10.3-1.2,13-3.5c2.8-2.3,4.1-5.7,4.1-10c0-4.5-1.4-8.1-4.2-10.7
		c-2.8-2.6-7.1-3.9-13-3.9H1234V43.2z"/>
</g>
<g>
</g>
<g>
</g>
<g>
</g>
<g>
</g>
<g>
</g>
<g>
</g>
</svg>
