<?xml version="1.0" encoding="utf-8"?>
<!-- Generator: Adobe Illustrator 22.0.1, SVG Export Plug-In . SVG Version: 6.00 Build 0)  -->
<svg version="1.1" id="Layer_1" xmlns="http://www.w3.org/2000/svg" xmlns:xlink="http://www.w3.org/1999/xlink" x="0px" y="0px"
	 viewBox="0 0 455.6 38" style="enable-background:new 0 0 455.6 38;" xml:space="preserve">
<style type="text/css">
	.st0{opacity:0.87;}
</style>
<g class="st0">
	<path d="M5.5,33.3C6.9,33,7.9,32.6,8.4,32c0.5-0.5,0.7-1.5,0.7-2.9L9.1,9c0-1-0.1-1.7-0.4-2.1C8.5,6.5,8.1,6.3,7.4,6.3
		c-0.4,0-0.7,0-1.1,0.1c-0.3,0-0.5,0-0.6,0L5.5,6.1l0.4-2.5l1.3,0l4.6,0c1.1,0,2.4,0,3.8-0.1c1.4-0.1,2.4-0.1,3-0.1
		c3.8,0,6.7,0.8,8.5,2.5c1.8,1.6,2.8,3.9,2.8,6.7c0,1.9-0.5,3.7-1.6,5.4c-1.1,1.7-2.5,3.1-4.3,4.1c-1.8,1-3.7,1.6-5.7,1.6H14
		l-0.1,4.4c0,1.4,0.1,2.5,0.1,3.1c0.1,0.7,0.3,1.1,0.6,1.3c0.3,0.2,0.8,0.3,1.5,0.3c0.5,0,1,0,1.5,0c0.5,0,0.8-0.1,1-0.1l0.1,0.2
		l-0.5,2.7c-0.4,0-1.1-0.1-2.2-0.1s-2.1,0-3.1,0c-1.2,0-2.8,0-4.8,0.2c-2,0.1-3,0.2-3.1,0.2L5.5,33.3z M24.4,13.5
		c0-2.4-0.7-4.1-2-5.2c-1.4-1.1-3.5-1.7-6.5-1.7c-0.6,0-0.9,0-1,0.1c-0.1,0.1-0.2,0.3-0.2,0.7c-0.3,3.9-0.5,8.1-0.6,12.7l5,0.7
		C22.6,20.2,24.4,17.8,24.4,13.5z"/>
	<path d="M33.3,33.5c1.5-0.3,2.6-0.7,3.1-1.3c0.5-0.6,0.8-1.6,0.8-3L37.2,9c0-1.1-0.1-1.8-0.4-2.1s-0.7-0.6-1.5-0.6l-2,0.1l-0.1-0.3
		l0.4-2.5l3.4,0c0.7,0,1.8,0,3,0c0.9,0,3-0.1,6.4-0.4L46.1,6c-1.3,0.2-2.2,0.4-2.7,0.8c-0.5,0.4-0.7,1-0.8,2
		c-0.2,3.5-0.3,7.2-0.4,11.3c-0.1,4.1-0.2,7.2-0.2,9.5c0,1.4,0.1,2.3,0.4,2.7c0.3,0.5,0.8,0.7,1.7,0.7c0.5,0,1.3,0,2.4-0.1l0.1,0.2
		l-0.4,2.7c-0.6,0-1.1,0-1.5-0.1l-5.4-0.1c-1.9,0-4,0.2-6.3,0.5L33.3,33.5z"/>
	<path d="M76,26.8c-0.6,2.6-1.1,5.6-1.4,8.8L74.2,36c-6.7-0.2-11.8-0.3-15.3-0.3c-2.6,0-5.2,0.2-7.7,0.5l0.3-2.8
		c1.5-0.2,2.5-0.6,3-1.2c0.5-0.6,0.8-1.6,0.8-3L55.4,9c0-1.1-0.1-1.8-0.4-2.1c-0.2-0.4-0.7-0.6-1.4-0.6L52,6.4l-0.2-0.3l0.4-2.6
		c3.9,0.1,6.5,0.1,7.9,0.1c3.9,0,7,0,9.3-0.1c2.3-0.1,4.3-0.2,5.8-0.5l0.2,0.4c-0.3,1.2-0.5,2.6-0.7,4.2c-0.2,1.6-0.4,3.1-0.4,4.4
		l-3.4,0.2l0.1-2.1c0-1.1-0.1-1.8-0.5-2.3c-0.3-0.5-0.9-0.8-1.8-0.9c-0.9-0.1-2.5-0.2-4.8-0.2c-1,0-1.8,0-2.2,0.1
		c-0.4,0.1-0.7,0.2-0.8,0.5c-0.1,0.2-0.2,0.7-0.2,1.3l-0.4,8.9l5,0c0.7,0,1.7,0,2.8-0.2c1.1-0.1,2.2-0.2,3.2-0.3l0.2,0.3L70.9,21
		c-3.5-0.1-5.8-0.2-6.8-0.2c-1,0-2.2,0.1-3.9,0.3l-0.1,8.5c0,0.9,0.1,1.6,0.2,2c0.1,0.4,0.5,0.7,0.9,0.8c0.5,0.1,1.3,0.2,2.5,0.2
		c2.5,0,4.3-0.1,5.4-0.4s1.9-0.8,2.4-1.6c0.5-0.8,0.8-2.1,1.1-4l3.1-0.3L76,26.8z"/>
	<path d="M101.3,35.2c-1-0.8-1.8-2-2.6-3.5l-4.9-9.3h-3.9l-0.1,6.7c0,1.2,0.1,2.1,0.2,2.6c0.2,0.5,0.5,0.9,1,1.1
		c0.5,0.2,1.3,0.3,2.4,0.3l0.1,0.2l-0.5,2.5c-0.5,0-1.4-0.1-2.7-0.1c-1.3,0-2.6,0-3.9,0c-1.1,0-2.2,0-3.4,0.1
		c-1.2,0-1.9,0.1-2.2,0.1l0.5-2.8c1.5-0.2,2.5-0.5,3-1c0.5-0.5,0.7-1.5,0.7-3L85,8.9c0-1-0.1-1.7-0.4-2.1S84,6.3,83.3,6.3
		c-0.4,0-0.7,0-1.1,0.1c-0.3,0-0.5,0-0.6,0l-0.2-0.2l0.4-2.6c0.4,0,1.2,0,2.4,0.1c1.2,0,2.3,0.1,3.5,0.1c1.2,0,2.5,0,3.9-0.1
		c1.4-0.1,2.3-0.1,2.9-0.1c3.4,0,6.1,0.7,8,2.1c1.9,1.4,2.9,3.4,2.9,6c0,2-0.6,3.8-1.9,5.5c-1.2,1.7-3,3-5.2,4.1l5,8
		c1,1.6,1.9,2.7,2.8,3.3c0.9,0.6,1.9,1,3.2,1l0.2,0.4l-0.4,2.1l-5,0.5C103.2,36.4,102.2,36,101.3,35.2z M97,18.4
		c0.6-0.4,1.2-1,1.9-2c0.7-1,1-2.3,1-3.9c0-4.1-2.8-6.1-8.4-6.1c-0.3,0-0.6,0.1-0.7,0.2c-0.1,0.2-0.2,0.5-0.2,0.9
		c-0.3,4.6-0.5,8.3-0.5,11.3l4.9,0.5C95.7,19.1,96.4,18.7,97,18.4z"/>
	<path d="M112.7,33.3c1.4-0.3,2.3-0.7,2.8-1.2c0.5-0.5,0.7-1.5,0.7-2.9L116.3,9c0-1-0.1-1.7-0.4-2.1c-0.2-0.4-0.7-0.6-1.4-0.6
		c-0.4,0-0.7,0-1.1,0.1c-0.3,0-0.5,0-0.6,0l-0.2-0.2l0.4-2.5l1.3,0l4.6,0c1.1,0,2.4,0,3.8-0.1c1.4-0.1,2.4-0.1,3-0.1
		c3.8,0,6.7,0.8,8.5,2.5c1.8,1.6,2.8,3.9,2.8,6.7c0,1.9-0.5,3.7-1.6,5.4c-1.1,1.7-2.5,3.1-4.3,4.1c-1.8,1-3.7,1.6-5.7,1.6h-4.2
		l-0.1,4.4c0,1.4,0.1,2.5,0.1,3.1c0.1,0.7,0.3,1.1,0.6,1.3c0.3,0.2,0.8,0.3,1.5,0.3c0.5,0,1,0,1.5,0c0.5,0,0.8-0.1,1-0.1l0.1,0.2
		l-0.5,2.7c-0.4,0-1.1-0.1-2.2-0.1s-2.1,0-3.1,0c-1.2,0-2.8,0-4.8,0.2c-2,0.1-3,0.2-3.1,0.2L112.7,33.3z M131.6,13.5
		c0-2.4-0.7-4.1-2-5.2c-1.4-1.1-3.5-1.7-6.5-1.7c-0.6,0-0.9,0-1,0.1c-0.1,0.1-0.2,0.3-0.2,0.7c-0.3,3.9-0.5,8.1-0.6,12.7l5,0.7
		C129.8,20.2,131.6,17.8,131.6,13.5z"/>
	<path d="M146.2,34.3c-2.1-1.3-3.8-3.1-4.9-5.5c-1.2-2.4-1.8-5.1-1.8-8.2c0-3.3,0.7-6.3,2.1-9c1.4-2.7,3.4-4.8,5.8-6.3
		c2.5-1.5,5.3-2.3,8.4-2.3c2.9,0,5.4,0.6,7.5,1.9c2.2,1.3,3.8,3.1,5,5.4c1.2,2.3,1.8,5,1.8,8.2c0,3.4-0.7,6.4-2.2,9.1
		s-3.4,4.8-6,6.3s-5.4,2.3-8.6,2.3C150.8,36.2,148.3,35.6,146.2,34.3z M159.9,31.4c1.4-1,2.5-2.4,3.3-4.2c0.8-1.8,1.2-3.9,1.2-6.3
		c0-2.9-0.4-5.4-1.2-7.5c-0.8-2.1-2-3.7-3.5-4.9c-1.5-1.1-3.3-1.7-5.3-1.7c-1.8,0-3.4,0.5-4.8,1.5c-1.4,1-2.4,2.4-3.2,4.2
		c-0.8,1.8-1.1,3.9-1.1,6.3c0,2.9,0.4,5.4,1.2,7.5c0.8,2.1,1.9,3.8,3.4,4.9c1.5,1.1,3.2,1.7,5.2,1.7
		C156.9,32.9,158.5,32.4,159.9,31.4z"/>
	<path d="M191.8,25.5c-2.5-3.7-4.5-6.8-6.1-9.1c-1.6-2.3-2.6-3.8-3-4.4h-0.4l-0.2,18.8c0,0.8,0.2,1.3,0.4,1.7
		c0.2,0.3,0.7,0.4,1.2,0.4l2.4,0l0.1,0.2l-0.5,2.7c-0.4,0-1.2-0.1-2.3-0.1c-1.1,0-2.3-0.1-3.5-0.1c-1,0-2,0.1-3.1,0.2
		c-1.1,0.1-1.8,0.2-2.2,0.2l0.3-2.8c1-0.1,1.8-0.4,2.3-0.9c0.5-0.5,0.7-1.2,0.8-2.2l0.7-21c0-1-0.3-1.8-0.9-2.2
		c-0.6-0.4-1.7-0.7-3.4-0.9l-0.2-0.4l0.4-2.3c0.3,0,1,0.1,2.1,0.2c1.1,0.1,2,0.1,2.8,0.1s1.6,0,2.4-0.1c0.8-0.1,1.3-0.1,1.6-0.1
		c2.2,3.5,4.5,7,6.8,10.4c2.3,3.4,4.2,6.2,5.7,8.4c1.5,2.2,2.5,3.6,2.9,4.1h0.3l0-18c0-1.4-0.5-2.1-1.7-2.1l-1.8,0l-0.2-0.3l0.4-2.6
		c0.4,0,1.1,0.1,2.2,0.1c1.1,0,2.2,0.1,3.3,0.1c0.9,0,2,0,3.1-0.1s1.9-0.2,2.2-0.2l-0.2,2.8c-1.1,0.2-2,0.5-2.5,1
		c-0.5,0.5-0.8,1.2-0.8,2.2l-0.7,27.5l-3.1,0.7C196.9,33.2,194.3,29.3,191.8,25.5z"/>
	<path d="M213.6,33.2c1.6-0.1,2.7-0.3,3.4-0.6c0.7-0.3,1.1-0.8,1.3-1.5c0.2-0.7,0.3-1.9,0.3-3.6v-21c-2.4,0.1-4.1,0.2-5,0.5
		c-0.9,0.2-1.5,0.8-1.9,1.5c-0.3,0.8-0.7,2.2-0.9,4.4l-3.2,0.2c0.3-3,0.6-6.2,0.7-9.6l0.5-0.4l4.5,0.5h15.5l4.6-0.5l0.5,0.4
		c0.1,3.5,0.3,6.6,0.6,9.4l-3.1,0.2c-0.3-2.2-0.7-3.8-1-4.5c-0.3-0.8-0.9-1.3-1.8-1.6c-0.8-0.2-2.4-0.4-4.6-0.5
		c-0.2,2.2-0.3,5.6-0.5,10.3c-0.2,4.7-0.2,9-0.2,12.8c0,1.2,0.2,2.1,0.7,2.6c0.4,0.5,1.1,0.8,2.1,0.8c0.9,0,1.8,0,2.7-0.1l0.2,0.2
		l-0.5,2.8c-3.2-0.1-5.8-0.2-7.9-0.2c-2.3,0-4.8,0.1-7.5,0.2L213.6,33.2z"/>
	<path d="M247.6,33.4c1.3-0.2,2.2-0.6,2.7-1.2c0.5-0.6,0.7-1.6,0.7-3V9c0-1.1-0.1-1.8-0.3-2.1c-0.2-0.4-0.7-0.6-1.5-0.6
		c-0.3,0-0.7,0-1,0.1c-0.3,0-0.5,0-0.6,0l-0.2-0.3l0.3-2.5l1.4,0l4.7,0c0.9,0,2.1-0.1,3.5-0.2c1.5-0.1,2.4-0.2,2.9-0.2L260,6.1
		c-1.1,0.1-1.9,0.3-2.4,0.6c-0.5,0.3-0.7,0.6-0.9,1.1c-0.1,0.5-0.2,1.3-0.3,2.5c-0.4,5.9-0.6,12.2-0.6,18.9c0,1.1,0.1,1.8,0.3,2.3
		c0.2,0.5,0.5,0.8,1,1c0.5,0.2,1.3,0.2,2.5,0.2c1.8,0,3.2-0.2,4.1-0.5c0.9-0.4,1.6-1,2-2s0.8-2.6,1.2-4.8l3-0.3l0.2,0.3
		c-0.1,0.6-0.3,1.9-0.6,3.9c-0.3,2-0.6,4.2-0.8,6.4l-0.4,0.4c-0.9-0.1-2.9-0.2-5.9-0.3c-3-0.1-5.6-0.2-7.8-0.2
		c-1.7,0-3.3,0.1-4.7,0.2c-1.5,0.1-2.4,0.2-2.8,0.3L247.6,33.4z"/>
	<path d="M296.7,26.8c-0.6,2.6-1.1,5.6-1.4,8.8L295,36c-6.7-0.2-11.8-0.3-15.3-0.3c-2.6,0-5.2,0.2-7.7,0.5l0.3-2.8
		c1.5-0.2,2.5-0.6,3-1.2c0.5-0.6,0.8-1.6,0.8-3l0-20.2c0-1.1-0.1-1.8-0.3-2.1c-0.2-0.4-0.7-0.6-1.4-0.6l-1.6,0.1l-0.2-0.3l0.4-2.6
		c3.9,0.1,6.5,0.1,7.9,0.1c3.9,0,7,0,9.3-0.1c2.3-0.1,4.3-0.2,5.8-0.5l0.2,0.4c-0.3,1.2-0.5,2.6-0.7,4.2c-0.2,1.6-0.4,3.1-0.4,4.4
		l-3.3,0.2l0.1-2.1c0-1.1-0.2-1.8-0.5-2.3s-0.9-0.8-1.8-0.9c-0.9-0.1-2.5-0.2-4.8-0.2c-1,0-1.8,0-2.2,0.1c-0.4,0.1-0.7,0.2-0.8,0.5
		c-0.1,0.2-0.2,0.7-0.2,1.3l-0.4,8.9l4.9,0c0.7,0,1.7,0,2.8-0.2c1.1-0.1,2.2-0.2,3.2-0.3l0.2,0.3l-0.7,3.6c-3.5-0.1-5.8-0.2-6.8-0.2
		c-1,0-2.2,0.1-3.9,0.3l-0.1,8.5c0,0.9,0.1,1.6,0.2,2c0.2,0.4,0.5,0.7,0.9,0.8c0.5,0.1,1.3,0.2,2.5,0.2c2.5,0,4.3-0.1,5.4-0.4
		c1.1-0.3,1.9-0.8,2.3-1.6s0.8-2.1,1.1-4l3.1-0.3L296.7,26.8z"/>
	<path d="M315.7,35.7l0.2-2.4c1.7-0.1,2.8-0.3,3.4-0.6c0.5-0.2,0.8-0.7,0.8-1.3c0-0.6-0.1-1.3-0.4-2.1l-1.4-4.7c-0.8,0-2.5,0-4.9,0
		c-1.6,0-3.3,0.1-5.2,0.3l-1.6,4.6c-0.3,0.9-0.4,1.4-0.4,1.8c0,0.7,0.2,1.1,0.6,1.4s1.1,0.4,2.1,0.4h2.5l0.2,0.2l-0.3,2.5
		c-0.4,0-1.4-0.1-2.9-0.2c-1.5-0.1-2.9-0.1-4.2-0.1c-1.3,0-2.5,0-3.6,0c-1.1,0-1.8,0.1-2.2,0.1l0.4-2.8c0.9-0.1,1.6-0.5,2.1-1
		c0.5-0.5,1-1.4,1.5-2.7l9.4-25.5l5.2-0.8l0.5,0.1c0.2,0.8,0.8,2.7,1.5,5.7c0.8,3,1.8,6.4,2.9,10.3c1.1,3.9,2.2,7.4,3.1,10.3
		c0.4,1.2,0.9,2.1,1.5,2.6c0.6,0.5,1.6,0.8,2.9,0.9l0.1,0.2l-0.3,2.5c-0.4,0-1.2-0.1-2.3-0.1s-2.2,0-3.4,0c-1.7,0-3.3,0.1-4.9,0.2
		c-1.6,0.1-2.6,0.2-3,0.3L315.7,35.7z M313.3,21.7c1.3,0,2.7-0.1,4.2-0.2l-3.4-12.2h-0.5l-4.2,12.4H313.3z"/>
	<path d="M334.2,33.2c1.6-0.1,2.7-0.3,3.4-0.6c0.7-0.3,1.1-0.8,1.3-1.5c0.2-0.7,0.3-1.9,0.3-3.6v-21c-2.4,0.1-4.1,0.2-5,0.5
		c-0.9,0.2-1.5,0.8-1.9,1.5c-0.3,0.8-0.7,2.2-0.9,4.4l-3.2,0.2c0.3-3,0.6-6.2,0.7-9.6l0.5-0.4l4.5,0.5h15.5l4.6-0.5l0.5,0.4
		c0.1,3.5,0.3,6.6,0.6,9.4l-3.1,0.2c-0.3-2.2-0.7-3.8-1-4.5c-0.3-0.8-0.9-1.3-1.8-1.6c-0.8-0.2-2.4-0.4-4.7-0.5
		c-0.2,2.2-0.3,5.6-0.5,10.3c-0.2,4.7-0.2,9-0.2,12.8c0,1.2,0.2,2.1,0.7,2.6c0.4,0.5,1.2,0.8,2.2,0.8c0.9,0,1.8,0,2.7-0.1l0.2,0.2
		l-0.5,2.8c-3.2-0.1-5.8-0.2-7.9-0.2c-2.3,0-4.8,0.1-7.5,0.2L334.2,33.2z"/>
	<path d="M358.5,33.5c1.5-0.3,2.5-0.7,3-1.3c0.5-0.6,0.8-1.6,0.8-3l0-20.2c0-1.1-0.1-1.8-0.4-2.1s-0.7-0.6-1.5-0.6l-1.6,0.1
		l-0.2-0.3l0.4-2.5l3.1,0c0.7,0,1.5,0,2.6,0c1,0,3.1-0.1,6.3-0.4L370.8,6c-1,0.2-1.7,0.4-2.1,0.6c-0.4,0.2-0.7,0.6-0.8,1.1
		c-0.2,0.5-0.3,1.3-0.3,2.5l-0.3,7.7l7.5,0c1.9,0,4.1-0.1,6.8-0.4l0-8.5c0-1.1-0.1-1.8-0.4-2.1s-0.7-0.6-1.5-0.6c-0.5,0-1,0-1.6,0.1
		L378,6.1l0.4-2.5l1.4,0l4.2,0c1,0,3.2-0.1,6.6-0.4L390.3,6c-1.2,0.2-2.1,0.4-2.5,0.8c-0.4,0.4-0.6,1-0.7,2c-0.2,3.3-0.4,7-0.5,11.1
		c-0.1,4.1-0.2,7.3-0.2,9.8c0,1.3,0.2,2.2,0.5,2.7c0.3,0.5,0.9,0.7,1.7,0.7c0.4,0,1,0,2-0.1l0.2,0.2l-0.5,2.7c-0.4,0-0.8,0-1-0.1
		c-2.4-0.1-4.3-0.1-5.6-0.1l-6.3,0.1l0.5-2.7c1,0,1.8-0.2,2.3-0.5c0.5-0.3,0.9-0.7,1.1-1.4c0.2-0.7,0.3-1.7,0.3-3.1V21l-6.7,0
		c-0.8,0-1.8,0-3.2,0.2c-1.4,0.1-2.9,0.2-4.5,0.3l-0.1,8.2c0,1.4,0.1,2.3,0.4,2.7c0.3,0.5,0.8,0.7,1.7,0.7c0.3,0,1,0,2.1-0.1
		l0.2,0.2l-0.5,2.7c-0.5,0-1.3-0.1-2.2-0.1s-1.9,0-2.8,0c-1.4,0-2.9,0.1-4.6,0.2c-1.7,0.1-2.8,0.2-3.1,0.4L358.5,33.5z"/>
	<path d="M420.4,26.8c-0.6,2.6-1.1,5.6-1.4,8.8l-0.3,0.4c-6.7-0.2-11.8-0.3-15.3-0.3c-2.6,0-5.2,0.2-7.7,0.5l0.3-2.8
		c1.5-0.2,2.5-0.6,3-1.2c0.5-0.6,0.8-1.6,0.8-3l0-20.2c0-1.1-0.1-1.8-0.3-2.1c-0.2-0.4-0.7-0.6-1.4-0.6l-1.6,0.1l-0.2-0.3l0.4-2.6
		c3.9,0.1,6.5,0.1,7.9,0.1c3.9,0,7,0,9.3-0.1c2.3-0.1,4.3-0.2,5.8-0.5l0.2,0.4c-0.3,1.2-0.5,2.6-0.7,4.2c-0.2,1.6-0.4,3.1-0.4,4.4
		l-3.3,0.2l0.1-2.1c0-1.1-0.2-1.8-0.5-2.3s-0.9-0.8-1.8-0.9c-0.9-0.1-2.5-0.2-4.8-0.2c-1,0-1.8,0-2.2,0.1c-0.4,0.1-0.7,0.2-0.8,0.5
		c-0.1,0.2-0.2,0.7-0.2,1.3l-0.4,8.9l4.9,0c0.7,0,1.7,0,2.8-0.2c1.1-0.1,2.2-0.2,3.2-0.3l0.2,0.3l-0.7,3.6c-3.5-0.1-5.8-0.2-6.8-0.2
		c-1,0-2.2,0.1-3.9,0.3l-0.1,8.5c0,0.9,0.1,1.6,0.2,2c0.2,0.4,0.5,0.7,0.9,0.8c0.5,0.1,1.3,0.2,2.5,0.2c2.5,0,4.3-0.1,5.4-0.4
		c1.1-0.3,1.9-0.8,2.3-1.6s0.8-2.1,1.1-4l3.1-0.3L420.4,26.8z"/>
	<path d="M445.7,35.2c-1-0.8-1.8-2-2.6-3.5l-4.8-9.3h-3.9l-0.1,6.7c0,1.2,0.1,2.1,0.2,2.6c0.2,0.5,0.5,0.9,0.9,1.1s1.3,0.3,2.4,0.3
		l0.1,0.2l-0.4,2.5c-0.5,0-1.4-0.1-2.7-0.1c-1.3,0-2.6,0-3.9,0c-1.1,0-2.2,0-3.3,0.1c-1.2,0-1.9,0.1-2.2,0.1l0.4-2.8
		c1.5-0.2,2.5-0.5,3-1c0.5-0.5,0.7-1.5,0.7-3l0-20.2c0-1-0.1-1.7-0.4-2.1s-0.7-0.5-1.4-0.5c-0.4,0-0.7,0-1,0.1s-0.5,0-0.6,0
		l-0.2-0.2l0.4-2.6c0.4,0,1.2,0,2.4,0.1c1.2,0,2.3,0.1,3.5,0.1c1.2,0,2.5,0,3.9-0.1c1.4-0.1,2.3-0.1,2.9-0.1c3.4,0,6.1,0.7,8,2.1
		c1.9,1.4,2.9,3.4,2.9,6c0,2-0.6,3.8-1.8,5.5c-1.2,1.7-3,3-5.2,4.1l5,8c1,1.6,1.9,2.7,2.8,3.3c0.9,0.6,1.9,1,3.2,1l0.2,0.4l-0.4,2.1
		l-4.9,0.5C447.6,36.4,446.7,36,445.7,35.2z M441.4,18.4c0.6-0.4,1.2-1,1.9-2c0.7-1,1-2.3,1-3.9c0-4.1-2.8-6.1-8.4-6.1
		c-0.3,0-0.6,0.1-0.7,0.2c-0.1,0.2-0.2,0.5-0.2,0.9c-0.3,4.6-0.5,8.3-0.5,11.3l4.9,0.5C440.2,19.1,440.8,18.7,441.4,18.4z"/>
</g>
<g>
</g>
<g>
</g>
<g>
</g>
<g>
</g>
<g>
</g>
<g>
</g>
</svg>
