<?xml version="1.0" encoding="utf-8"?>
<!-- Generator: Adobe Illustrator 22.0.1, SVG Export Plug-In . SVG Version: 6.00 Build 0)  -->
<svg version="1.1" id="Layer_1" xmlns="http://www.w3.org/2000/svg" xmlns:xlink="http://www.w3.org/1999/xlink" x="0px" y="0px"
	 viewBox="0 0 41 41" style="enable-background:new 0 0 41 41;" xml:space="preserve">
<style type="text/css">
	.st0{fill:#212121;}
	.st1{fill:#FFFFFF;}
</style>
<path class="st0" d="M99.32008,23.5785c-0.30537-0.23597-0.59686-0.48581-0.92999-0.69402
	c-0.47194-0.30537-0.9855-0.41641-1.54072-0.40253c-0.81895,0.01388-1.63789,0.02776-2.45683,0.02776
	c-0.43028,0-0.87446-0.38865-0.99938-0.79118c-0.05553-0.2082-0.01388-0.34701,0.19433-0.40253
	c0.36089-0.11104,0.72178-0.23597,1.09655-0.31925c0.40253-0.09716,0.66625-0.30537,0.80506-0.7079
	c0.20821-0.58298,0.43029-1.16595,0.66625-1.74893c0.19433-0.48581,0.41641-0.62462,0.92999-0.58298
	c0.19433,0.01388,0.38865,0.04164,0.58298,0c0.49969-0.08328,0.81894-0.59686,0.68014-1.09655
	c-0.1388-0.54134-0.55521-0.7773-1.08266-0.58298c-0.49969,0.18045-1.01327,0.37477-1.51297,0.55522
	c-0.2776,0.09716-0.48581,0.26373-0.63849,0.51357c-0.33314,0.58298-0.80506,1.05491-1.31863,1.47132
	c-0.76342,0.62462-1.83221,0.49969-2.47071-0.24985c-0.1388-0.15268-0.15268-0.24985,0.05553-0.31925
	c0.18044-0.05552,0.18044-0.15269,0.08328-0.29149c-0.11105-0.16656-0.19433-0.34701-0.30537-0.51357
	c-0.04164-0.0694-0.12492-0.16656-0.16656-0.15269c-0.38865,0.09716-0.68015-0.18044-1.01327-0.30537
	c-0.18044-0.0694-0.18044-0.15268-0.04163-0.30537c0.11104-0.11104,0.2082-0.23597,0.2776-0.37477
	c0.09717-0.19433,0.16656-0.41641,0.24985-0.66626c-0.08328,0-0.1866,0-0.29771,0c-0.20834,0.01389-0.41667,0.04167-0.625,0.01389
	c-0.16667-0.01389-0.29166-0.125-0.30556-0.33333c-0.01389-0.20833,0.125-0.29167,0.29166-0.34722
	c0.18055-0.05556,0.34722-0.01389,0.41666,0.19444c0.04166,0.125,0.11111,0.19444,0.26389,0.13889
	c0.375-0.13889,0.73611-0.65278,0.73611-1.06944c0-0.23611-0.09722-0.40278-0.34722-0.43056
	c-0.19445-0.02778-0.40278-0.05556-0.59722-0.09722c-0.61111-0.09722-1.20834,0.23611-1.65278-0.20833
	c-0.33334-0.33333-0.66666-0.22222-1.11111-0.22222h-0.63889c-0.22221,0-0.43055-0.30556-0.65278-0.22222
	c-0.16666,0.06944-0.36111-0.15278-0.54167-0.15278c-0.70833,0.02778-1.31944,0.125-1.80555,0.66667
	c-0.11111,0.11111-0.25,0.125-0.34722,0.25c-0.11111,0.125-0.22222,0.23611-0.25,0.40278
	c-0.04166,0.16667-0.11111,0.23611-0.26389,0.26389c-0.23611,0.04167-0.47223,0.06944-0.76389,0.18056
	c0.09723,0.04167,0.20834,0.08333,0.36111,0.16667c-0.15278,0.125-0.22222,0.18056-0.30556,0.23611
	c0.04166,0.02778,0.06944,0.06944,0.09722,0.08333c0.18055,0.11111,0.16666,0.22222,0.01389,0.34722
	c-0.29166,0.23611-0.36111,0.58333-0.44445,0.91667c-0.01389,0.05556,0.08334,0.16667,0.15278,0.20833
	c0.06944,0.04167,0.16666,0.02778,0.30556,0.04167c-0.05556,0.08333-0.09722,0.15278-0.13889,0.20833
	c-0.49999,0.625-0.52777,1.23611,0,1.84722c0.33334,0.38889,0.59722,0.75,0.16667,1.31944
	c0.18056-0.02778,0.27778-0.04167,0.36111-0.06944c0.15278-0.04167,0.25-0.02778,0.26389,0.16667
	c0.01389,0.25,0.16667,0.38889,0.375,0.48611c0.19445,0.09722,0.40279,0.18056,0.58334,0.30556
	c0.70833,0.47222,0.63889,1.30556-0.09722,1.69444c-0.08333,0.04167-0.13889,0.13889-0.19445,0.20833
	c0.09722,0.02778,0.20834,0.11111,0.29166,0.08333c0.34722-0.09722,0.68056-0.22222,1.05555-0.34722
	c0.16667,0.26389,0.37501,0.54167,0.52778,0.86111c0.05556,0.08333-0.02778,0.25-0.05556,0.375
	c0.05556-0.01389,0.15277-0.02778,0.26389-0.04167c0.33334-0.05556,0.43055,0.01389,0.45833,0.36111
	c0.09722,1.01389-0.125,1.95833-0.68056,2.80556c-0.18056,0.26389-0.34722,0.52778-0.48611,0.80556
	c-0.24999,0.47222-0.33334,1-0.04166,1.45833c0.63889,1.02778-0.09722,2.27778-1.22222,2.51389
	c-0.75,0.15278-1.375-0.09722-1.86111-0.69444c-0.51389-0.63889-0.68056-1.41667-0.76389-2.20833
	c-0.13889-1.31944,0.16666-2.51389,1.01389-3.55556c0.26389-0.33333,0.48611-0.69444,0.69444-1.05556
	c0.29166-0.51389,0.29166-1.05556,0.05556-1.61111c-0.18056-0.43056-0.36111-0.86111-0.51389-1.29167
	c-0.30556-0.83333-0.95834-1.19444-1.80556-0.95833c-0.16666,0.04167-0.33333,0.11111-0.5,0.19444
	c-0.40278,0.22222-0.81944,0.38889-1.27778,0.125c-0.11111,0.16667-0.01389,0.26389,0.06944,0.36111
	c0.22222,0.22222,0.22222,0.36111,0.01389,0.59722c-0.47222,0.54167-0.5,0.94444-0.06945,1.54167
	c0.09723,0.13889,0.19445,0.29167,0.27778,0.44444c0.15278,0.30556-0.24999,0.5-0.56944,0.59722
	c-0.11111,0.02778-0.68056,0.02778-0.68056,0.04167v0.05025c0.77731,0.31925,1.42968,0.1388,1.62401-0.44417
	c0.11104-0.31925,0.30537-0.31925,0.55521-0.12492c0.18044,0.15269,0.45805,0.23597,0.70789,0.15269
	c-0.08327-0.08328-0.11104-0.15269-0.16656-0.22209c-0.26373-0.33313-0.18044-0.8467,0.15268-1.08267
	c0.27761-0.19432,0.72179-0.19432,0.9855-0.02776c0.30537,0.2082,0.49969,0.59686,0.38865,0.95774
	c-0.11104,0.33313-0.23597,0.69402-0.47193,0.94387c-0.81895,0.92999-1.24924,1.98489-1.33252,3.23413
	c-0.08328,1.20759,0.01388,2.37354,0.61073,3.44233c0.86059,1.54072,2.8316,1.99877,4.12247,0.91611
	c0.24985-0.20821,0.43029-0.51357,0.65238-0.7773c0.18044-0.22209,0.30537-0.26373,0.47193-0.04164
	c0.20821,0.27761,0.41641,0.58298,0.54134,0.90222c0.12492,0.33313,0.08327,0.69402-0.04164,1.02715
	c-0.11105,0.27761-0.37477,0.27761-0.59686,0.37477c-0.41641,0.18045-0.59686,0.49969-0.49969,0.95775
	c0.05552,0.22208,0.1388,0.45805,0.24984,0.65237c0.58298,0.95774,1.17983,1.91549,1.79057,2.87324
	c0.12492,0.19432,0.30537,0.29149,0.54134,0.27761c0.30537,0,0.61074,0,0.92999,0c0.59685,0,1.20759,0,1.80444,0
	c0.16656,0,0.33314-0.02776,0.33314-0.26373c0-0.68014-0.61074-1.24923-1.26311-1.19371c-0.11104,0.01388-0.22208,0.01388-0.34701,0
	c-0.33313-0.02776-0.62462-0.18044-0.74954-0.51357c-0.31925-0.83282-0.34701-2.04041,0.55521-2.76219
	c0.6385-0.52745,0.86058-1.19371,0.72178-1.99877c-0.08327-0.48581-0.20821-0.95775-0.30537-1.44356
	c-0.05553-0.27761,0.02776-0.41641,0.26373-0.36089c0.41641,0.08328,0.8467,0.16656,1.23536,0.34701
	c0.61074,0.29149,0.66626,0.81894,0.19433,1.30475c-0.38865,0.41641-0.36089,0.7773,0.05553,1.15207
	c0.47194,0.40253,0.92999,0.80506,1.38804,1.22147c0.18044,0.16656,0.40253,0.31925,0.52745,0.52746
	c0.29148,0.47193,0.70789,0.65237,1.2076,0.6385c0.79118-0.02776,1.58237-0.09716,2.38742-0.15269
	c0.16657-0.01388,0.30537-0.0694,0.33314-0.26373c0.09716-0.74954-0.69402-1.54072-1.33251-1.37416
	c-0.55521,0.15269-1.01327-0.04164-1.42968-0.41641c-0.43029-0.40253-0.49969-0.73566-0.18044-1.23535
	c0.45805-0.72178,0.66626-1.51296,0.7773-2.34578c0.08328-0.62462-0.1388-1.11043-0.6385-1.44356
	c-0.23596-0.15269-0.49969-0.27761-0.76342-0.37477c-0.58298-0.23597-1.17983-0.41641-1.76281-0.66626
	c-0.33313-0.1388-0.38865-0.30537-0.19433-0.61074c0.27761-0.44417,0.59686-0.8467,0.90223-1.27699
	c0.11104-0.15268,0.24984-0.1388,0.41641-0.05552c0.36089,0.22209,0.76342,0.29149,1.17982,0.19432
	c0.45805-0.11104,0.90223-0.29149,1.37416-0.43029c0.43029-0.1388,0.86059-0.26373,1.29088-0.36089
	c0.34701-0.0694,0.54134,0.02776,0.69402,0.30537c0.24985,0.45805,0.73566,0.7079,1.24924,0.6385
	c0.38865-0.05552,0.59686-0.36089,0.72178-0.7079C99.69485,24.02268,99.55605,23.77283,99.32008,23.5785z"/>
<path class="st0" d="M63.67566,80.20965c-0.23092,0-0.42297-0.10674-0.5542-0.31087
	c-0.60886-0.95486-1.21155-1.92193-1.79152-2.87476c-0.13224-0.23138-0.21315-0.49275-0.25784-0.67152
	c-0.1024-0.48286,0.0843-0.84106,0.53948-1.03841c0.05941-0.02591,0.12085-0.04517,0.18026-0.06361
	c0.16581-0.05181,0.30897-0.09644,0.3797-0.27316c0.13313-0.35496,0.1475-0.69322,0.0411-0.97697
	c-0.12756-0.32579-0.35129-0.64412-0.53189-0.88501c-0.0588-0.07839-0.11027-0.11854-0.15293-0.11935
	c-0.00048,0-0.00102,0-0.00149,0c-0.05148,0-0.11766,0.05195-0.20807,0.16317c-0.07467,0.0887-0.14547,0.18324-0.21383,0.27466
	c-0.13591,0.18147-0.27649,0.36933-0.44807,0.51215c-0.60648,0.50876-1.37804,0.70814-2.17163,0.56287
	c-0.86324-0.15869-1.61255-0.70475-2.05587-1.49834c-0.52904-0.9474-0.72008-2.02107-0.61944-3.48103
	c0.0847-1.26872,0.52619-2.34009,1.34976-3.27522c0.23424-0.24815,0.35841-0.6206,0.45817-0.91994
	c0.0944-0.3068-0.05425-0.66868-0.36194-0.87843c-0.24638-0.15564-0.66236-0.1435-0.90651,0.02733
	c-0.14533,0.10288-0.24448,0.27113-0.27181,0.4613c-0.02719,0.18961,0.02156,0.37964,0.13373,0.5213
	c0.02204,0.02753,0.04015,0.05527,0.05873,0.08382c0.02855,0.04388,0.05547,0.08531,0.10247,0.13231l0.07948,0.07941
	l-0.10661,0.03554c-0.25262,0.0843-0.55644,0.01913-0.77467-0.16547c-0.12078-0.09386-0.21878-0.1321-0.28903-0.11108
	c-0.06226,0.01838-0.11468,0.08762-0.15578,0.20576c-0.08382,0.25146-0.25167,0.44142-0.48516,0.54837
	c-0.32864,0.15062-0.76565,0.1283-1.23081-0.06281l-0.04306-0.0177v-0.09677c0-0.07324,0.01139-0.07358,0.3026-0.08301
	c0.14913-0.00475,0.37455-0.012,0.43057-0.02604c0.2868-0.08735,0.48319-0.20773,0.53541-0.32919
	c0.02285-0.05324,0.01919-0.10871-0.01126-0.16961c-0.0748-0.13699-0.16948-0.28843-0.27256-0.43565
	c-0.44345-0.61517-0.42358-1.05639,0.07399-1.62713c0.18534-0.21009,0.18324-0.30864-0.01065-0.50245l-0.0158-0.01804
	c-0.07853-0.09088-0.19728-0.22827-0.06232-0.43071l0.03608-0.05412l0.05636,0.03249
	c0.40012,0.23024,0.75955,0.12275,1.20958-0.12566c0.19389-0.09698,0.36208-0.16235,0.5167-0.20101
	c0.87626-0.24448,1.5646,0.12092,1.88762,1.00179c0.15198,0.42833,0.33467,0.86412,0.51141,1.2856
	c0.25411,0.59794,0.23424,1.16068-0.05785,1.67535c-0.189,0.32762-0.41978,0.70991-0.70041,1.06445
	c-0.80404,0.9885-1.14007,2.16756-0.99928,3.50504c0.07426,0.70598,0.22136,1.51611,0.74897,2.17218
	c0.47947,0.58905,1.0831,0.81475,1.79314,0.66989c0.56566-0.11868,1.05577-0.51636,1.27848-1.0376
	c0.19735-0.4617,0.16133-0.94889-0.10146-1.37167c-0.34702-0.54524-0.17022-1.13172,0.03933-1.5275
	c0.12282-0.24564,0.27425-0.49655,0.49018-0.81217c0.54009-0.82357,0.76531-1.75253,0.66874-2.75967
	c-0.01275-0.15869-0.03974-0.24563-0.08769-0.28313c-0.04761-0.03709-0.13428-0.04191-0.29019-0.01614
	c-0.08443,0.01065-0.19979,0.02591-0.25852,0.04056l-0.10891,0.02713l0.02435-0.1096c0.008-0.03601,0.02034-0.07528,0.03289-0.11515
	c0.02306-0.07317,0.05466-0.17334,0.03269-0.20623c-0.11278-0.23425-0.24875-0.43844-0.38025-0.63586
	c-0.04076-0.06123-0.08084-0.12139-0.11909-0.18073c-0.09644,0.03248-0.19029,0.06483-0.28239,0.09663
	c-0.24801,0.08559-0.48225,0.16643-0.7251,0.23438c-0.07819,0.02631-0.16344-0.01261-0.23885-0.04686
	c-0.03072-0.01397-0.06131-0.02821-0.0906-0.03662l-0.10023-0.02869l0.0651-0.08145
	c0.01214-0.01512,0.02428-0.03174,0.03669-0.04869c0.04768-0.06503,0.10166-0.13869,0.18093-0.17836
	c0.33481-0.17686,0.53677-0.45769,0.55271-0.76972c0.01553-0.3049-0.1532-0.59828-0.46292-0.80478
	c-0.12777-0.08836-0.27303-0.15686-0.41348-0.22312c-0.05459-0.02577-0.10905-0.0514-0.16242-0.07812
	c-0.16785-0.07826-0.3953-0.22081-0.41328-0.54436c-0.00414-0.05717-0.01709-0.09684-0.03642-0.11054
	c-0.02116-0.01492-0.06823-0.01255-0.13984,0.00705c-0.07996,0.02672-0.17063,0.04062-0.33522,0.06592l-0.20284,0.0312
	l0.10322-0.13658c0.38913-0.5146,0.18772-0.82208-0.16391-1.23237c-0.53399-0.61822-0.53453-1.2696-0.00156-1.93583
	c0.02177-0.02903,0.04449-0.06382,0.06985-0.10308c-0.08341-0.00339-0.1555-0.00644-0.21803-0.04395
	c-0.06538-0.03926-0.21125-0.17693-0.18446-0.28469l0.01614-0.0649c0.07921-0.32125,0.16113-0.65341,0.45207-0.88894
	c0.06151-0.05032,0.09433-0.09589,0.09216-0.12804c-0.00203-0.03045-0.0371-0.06809-0.09881-0.10607
	c-0.01858-0.00902-0.03764-0.02808-0.05609-0.04652c-0.01261-0.01262-0.02638-0.02699-0.04327-0.03818l-0.08653-0.05785
	l0.0866-0.05771c0.0645-0.043,0.12153-0.08694,0.2183-0.16541c-0.07819-0.03859-0.14445-0.06619-0.20488-0.09142l-0.21572-0.09196
	l0.16052-0.0611c0.25214-0.09603,0.46217-0.13116,0.66528-0.16507l0.11122-0.01892c0.12479-0.02272,0.17361-0.07236,0.20868-0.21247
	c0.02753-0.16683,0.13407-0.28558,0.23716-0.40039l0.02828-0.0316c0.05893-0.07602,0.13231-0.11556,0.20325-0.15381
	c0.0531-0.02862,0.10322-0.05561,0.14676-0.09915c0.527-0.58736,1.20395-0.66155,1.85194-0.68699c0.00006,0,0.00006,0,0.00013,0
	c0.09854,0,0.1886,0.04686,0.27568,0.09216c0.09155,0.04761,0.17842,0.09264,0.24183,0.06592
	c0.15829-0.0592,0.30151,0.02971,0.42772,0.10851c0.08924,0.05574,0.17361,0.10837,0.2518,0.10837h0.6389
	c0.09142,0,0.17802-0.00481,0.26089-0.00936c0.32939-0.01831,0.61354-0.03377,0.89932,0.25194
	c0.26041,0.26048,0.57841,0.22983,0.94632,0.19456c0.21558-0.02082,0.43864-0.04218,0.66813-0.0057
	c0.17496,0.0373,0.35726,0.06314,0.53345,0.08809l0.0628,0.00888c0.26163,0.02909,0.4069,0.2065,0.4069,0.49934
	c0,0.4423-0.37244,0.98314-0.78152,1.13457c-0.08382,0.03052-0.15625,0.0314-0.21512,0.00271
	c-0.06184-0.02991-0.10728-0.09033-0.13875-0.18473c-0.05032-0.1515-0.16154-0.20237-0.33034-0.15001
	c-0.18589,0.06192-0.25208,0.13692-0.24278,0.27622c0.01071,0.16113,0.0967,0.25662,0.24203,0.26876
	c0.1629,0.02143,0.32118,0.00888,0.48882-0.00454c0.04192-0.00332,0.08382-0.00665,0.12573-0.00949l0.39863-0.00013
	l-0.05791,0.17408c-0.0708,0.21376-0.13766,0.41565-0.2261,0.59265c-0.06795,0.1357-0.16574,0.26788-0.29066,0.39286
	c-0.08016,0.08837-0.08044,0.12146-0.07854,0.12939c0.00109,0.00461,0.01086,0.02923,0.09603,0.06199
	c0.10037,0.03764,0.19721,0.08877,0.29093,0.13814c0.22149,0.11685,0.43078,0.22712,0.68061,0.16473
	c0.1062-0.03554,0.22081,0.14743,0.24292,0.18433c0.05534,0.08287,0.10552,0.17245,0.15408,0.25912
	c0.04693,0.08396,0.09562,0.17083,0.14947,0.25167c0.04354,0.06205,0.09901,0.15706,0.06728,0.24957
	c-0.02306,0.06694-0.0845,0.11495-0.18786,0.14682c-0.07351,0.02448-0.10457,0.05005-0.10864,0.06572
	c-0.00298,0.01119-0.00054,0.04727,0.0841,0.14038c0.62635,0.73534,1.647,0.83896,2.37535,0.24285
	c0.60072-0.48706,1.01454-0.94835,1.30222-1.45203c0.16154-0.26428,0.38235-0.44189,0.676-0.5447
	c0.24902-0.08993,0.50211-0.18351,0.7552-0.27717c0.2535-0.09372,0.507-0.18752,0.75697-0.27778
	c0.27127-0.09996,0.52504-0.09501,0.73338,0.01431c0.21321,0.1119,0.36539,0.32518,0.44026,0.61673
	c0.07202,0.25954,0.03025,0.53996-0.11501,0.76789c-0.14092,0.22108-0.36729,0.37211-0.62107,0.41443
	c-0.16832,0.03628-0.33813,0.02217-0.50239,0.00848l-0.09684-0.00773c-0.48448-0.03893-0.67749,0.08172-0.86073,0.53948
	c-0.23505,0.58119-0.45885,1.16869-0.66528,1.74649c-0.13997,0.40602-0.41138,0.64521-0.85408,0.75202
	c-0.28632,0.06368-0.56858,0.15306-0.84148,0.23946c-0.08382,0.02652-0.16737,0.05297-0.25092,0.07874
	c-0.13495,0.03601-0.20548,0.10146-0.14771,0.3182c0.12194,0.3928,0.558,0.73968,0.93235,0.73968
	c0.81421,0,1.64252-0.01397,2.44357-0.02753c0.62446-0.01505,1.13797,0.1199,1.59167,0.41341
	c0.25241,0.15775,0.48434,0.34173,0.70868,0.51968c0.07501,0.05954,0.15002,0.11909,0.22597,0.17774l0.00163,0.00129
	c0.30897,0.25432,0.38506,0.54436,0.22623,0.86202c-0.16073,0.448-0.41504,0.69431-0.77406,0.74557
	c-0.53765,0.0723-1.05685-0.19165-1.31998-0.67403c-0.14242-0.25886-0.30979-0.33217-0.61944-0.27052
	c-0.38222,0.08633-0.80254,0.20386-1.28323,0.35896c-0.19273,0.05669-0.38222,0.12078-0.56532,0.18263
	c-0.26516,0.08979-0.53955,0.18256-0.81367,0.24902c-0.42901,0.09996-0.85476,0.02984-1.23264-0.20264
	c-0.18053-0.09007-0.25838-0.05317-0.32389,0.03716c-0.09807,0.13821-0.19803,0.27425-0.29758,0.40961
	c-0.20412,0.2775-0.41504,0.56437-0.60194,0.8633c-0.08599,0.13523-0.11651,0.23601-0.09372,0.30884
	c0.02306,0.0731,0.10674,0.13889,0.25594,0.20101c0.31995,0.13726,0.64982,0.25539,0.9687,0.3696
	c0.26082,0.09332,0.53059,0.19003,0.79346,0.29636c0.28687,0.10566,0.54823,0.2341,0.77501,0.38086
	c0.53114,0.35414,0.75616,0.86236,0.66975,1.51109c-0.13062,0.9786-0.38086,1.73286-0.78762,2.37373
	c-0.29202,0.45708-0.24767,0.75738,0.16927,1.14746c0.44962,0.40487,0.88324,0.53223,1.36379,0.40012
	c0.29297-0.07663,0.64005,0.03039,0.9295,0.28538c0.35509,0.3129,0.54295,0.75914,0.49032,1.16482
	c-0.04205,0.29446-0.3087,0.3167-0.39632,0.3239c-0.21389,0.01478-0.42575,0.03038-0.63707,0.04597
	c-0.57549,0.04259-1.17052,0.08654-1.75361,0.10702c-0.55325,0.01302-0.98429-0.2105-1.26913-0.67152
	c-0.08653-0.14431-0.228-0.26476-0.36472-0.38113c-0.05154-0.04382-0.10254-0.08735-0.15069-0.13184
	c-0.44827-0.40745-0.90183-0.80648-1.38604-1.21948c-0.22977-0.20684-0.34519-0.40799-0.35428-0.61633
	c-0.00895-0.20697,0.08681-0.41504,0.29311-0.63599c0.22407-0.23084,0.32579-0.4754,0.28741-0.6897
	c-0.03662-0.20399-0.19599-0.37868-0.46102-0.5051c-0.37028-0.17198-0.78532-0.25485-1.18679-0.33501l-0.03214-0.00651
	c-0.05453-0.01262-0.12397-0.02008-0.16019,0.01465c-0.04042,0.03906-0.04815,0.13306-0.02184,0.26448
	c0.0396,0.19803,0.08382,0.39375,0.1279,0.58906c0.06307,0.27886,0.12817,0.56736,0.17782,0.85625
	c0.14703,0.85273-0.09698,1.52792-0.74606,2.06421c-0.88332,0.70665-0.83991,1.88721-0.5346,2.68378
	c0.13177,0.3513,0.4482,0.44908,0.69051,0.46929c0.12153,0.01357,0.22678,0.01329,0.33271,0.00027
	c0.32877-0.02849,0.66284,0.09169,0.92054,0.32837c0.2672,0.24536,0.42047,0.58594,0.42047,0.93424
	c0,0.33311-0.29243,0.33311-0.40257,0.33311h-2.73438C63.70591,80.20924,63.69071,80.20965,63.67566,80.20965z"/>
<path class="st0" d="M27.61622,46.05096c-0.0023,0.00054-0.00447,0.00115-0.00678,0.0017
	C27.61161,46.05231,27.61392,46.05177,27.61622,46.05096z"/>
<g>
	<g>
		<path class="st0" d="M17.03411,26.25c0.00145,0-0.16426,0-0.16268,0c0.09989,0.00196,0.19204,0.06364,0.28983,0.19407
			c0.21905,0.29201,0.46284,0.64149,0.61058,1.0188c0.13171,0.35114,0.11577,0.7638-0.04574,1.19452
			c-0.10629,0.26553-0.32556,0.33398-0.51896,0.39431c-0.06477,0.02016-0.12592,0.03926-0.18437,0.06484
			c-0.43561,0.18881-0.60704,0.51708-0.50978,0.97593c0.04664,0.1861,0.13171,0.46156,0.26862,0.70122
			c0.64164,1.05401,1.30954,2.12592,1.98413,3.18384c0.1266,0.19678,0.29953,0.28614,0.53107,0.27245l2.38154-0.00014
			c0.21296,0,0.28125-0.05035,0.28125-0.20718c0-0.33015-0.14598-0.65364-0.4006-0.88744
			c-0.24421-0.22439-0.55902-0.33868-0.86631-0.31206c-0.12182,0.01534-0.24494,0.01519-0.38455-0.00014
			c-0.42361-0.0353-0.73003-0.24696-0.86074-0.59549c-0.34331-0.89568-0.38831-2.22713,0.6153-3.03022
			c0.64691-0.53443,0.89026-1.20905,0.74312-2.06162c-0.05208-0.3044-0.12124-0.61024-0.18808-0.90595
			c-0.04724-0.20949-0.09469-0.41941-0.13715-0.63194c-0.03942-0.1969-0.01736-0.33738,0.06561-0.41753
			c0.06937-0.06742,0.17253-0.08521,0.30519-0.05382l0.03197,0.00622c0.43663,0.08739,0.88816,0.17752,1.30005,0.36878
			c0.32812,0.15654,0.52662,0.38006,0.57436,0.64655c0.04962,0.27691-0.07292,0.58376-0.3452,0.864
			c-0.19039,0.20399-0.27966,0.39077-0.27184,0.56973c0.00796,0.18055,0.11502,0.36125,0.32755,0.55237
			c0.5162,0.44039,1.00101,0.86704,1.48075,1.30309c0.05035,0.04644,0.10344,0.09158,0.15668,0.13701
			c0.15509,0.13194,0.31525,0.26837,0.4197,0.44242c0.27734,0.44893,0.67418,0.66377,1.2225,0.64511
			c0.61849-0.0217,1.25187-0.06843,1.86428-0.11371c0.22555-0.01664,0.45182-0.03342,0.67925-0.04905
			c0.1862-0.01548,0.26692-0.07653,0.28703-0.21774c0.04904-0.37775-0.13701-0.81423-0.4741-1.11125
			c-0.2717-0.23944-0.59143-0.341-0.85518-0.27257c-0.55714,0.15321-1.07841,0.00261-1.59331-0.46064
			c-0.49927-0.46716-0.55642-0.86299-0.20515-1.41275c0.42173-0.66464,0.68171-1.45022,0.81814-2.47206
			c0.08406-0.63122-0.13426-1.12514-0.64887-1.46831c-0.23191-0.15017-0.50087-0.28212-0.79875-0.39192
			c-0.2798-0.11314-0.56611-0.21571-0.84288-0.31481c-0.3423-0.12268-0.69618-0.24942-1.04108-0.39713
			c-0.20414-0.08521-0.31756-0.18272-0.35662-0.30671c-0.03877-0.12355-0.00188-0.26736,0.11603-0.45269
			c0.20197-0.32306,0.42867-0.63151,0.648-0.92968c0.10576-0.14366,0.2118-0.28805,0.3164-0.43547
			c0.16826-0.23133,0.38744-0.15784,0.53776-0.08261c0.38021,0.23365,0.78515,0.30006,1.20862,0.20124
			c0.28544-0.06915,0.56192-0.16261,0.85474-0.26164c0.19676-0.06655,0.40017-0.13534,0.60691-0.19611
			c0.51504-0.16623,0.96759-0.29275,1.3815-0.38621c0.39453-0.0787,0.6386,0.02988,0.82147,0.36234
			c0.25116,0.46036,0.74667,0.71209,1.25766,0.64337c0.32306-0.04615,0.55555-0.27734,0.71007-0.70681
			c0.14149-0.28407,0.07726-0.51866-0.19864-0.74616c-0.08102-0.06272-0.16131-0.12637-0.24161-0.19003
			c-0.23597-0.18721-0.48003-0.38086-0.7432-0.54535c-0.4592-0.29709-0.98437-0.43345-1.60242-0.41804
			c-0.86848,0.01468-1.75259,0.02959-2.62238,0.02959c-0.51374,0-1.0026-0.46332-1.13686-0.89612
			c-0.07523-0.28205,0.01215-0.45696,0.25897-0.52278c0.08608-0.02655,0.17491-0.05469,0.26389-0.0829
			c0.29412-0.0931,0.59838-0.18945,0.90885-0.25846c0.42274-0.102,0.67144-0.32009,0.80468-0.70688
			c0.22106-0.61899,0.4605-1.24761,0.71195-1.86913c0.21846-0.54615,0.48784-0.71469,1.06669-0.66789l0.10446,0.00832
			c0.17187,0.01418,0.33391,0.02785,0.49595-0.00687c0.23264-0.03892,0.4375-0.17578,0.56524-0.37615
			c0.13238-0.20783,0.17043-0.46347,0.10446-0.70131c-0.06944-0.27069-0.20602-0.46549-0.3954-0.56488
			c-0.18403-0.0965-0.4129-0.0991-0.66261-0.00723c-0.26678,0.09635-0.53674,0.19618-0.80671,0.29608
			c-0.27485,0.10161-0.54969,0.20331-0.82058,0.30105c-0.25825,0.09318-0.48757,0.26091-0.62296,0.49975
			c-0.31552,0.55658-0.7699,1.06541-1.43014,1.60052c-0.84071,0.688-2.01807,0.56959-2.73841-0.27597
			c-0.07465-0.08203-0.14887-0.18171-0.12182-0.28508c0.02633-0.10055,0.13469-0.14728,0.21397-0.17368
			c0.06004-0.01852,0.09794-0.04152,0.10547-0.06358c0.00492-0.01447,0.00463-0.05122-0.05382-0.13455
			c-0.06163-0.09252-0.11502-0.18772-0.16652-0.27973c-0.05035-0.08992-0.10243-0.18294-0.16016-0.26953
			c-0.03834-0.0638-0.08738-0.11545-0.10995-0.12956c-0.31901,0.07342-0.5732-0.0612-0.81915-0.19097
			c-0.09578-0.05049-0.19488-0.10272-0.29383-0.13983c-0.07277-0.02807-0.17159-0.07595-0.19401-0.17043
			c-0.02344-0.09896,0.04789-0.19423,0.1208-0.27445c0.12442-0.12457,0.21947-0.2526,0.28472-0.3831
			c0.0884-0.17694,0.15437-0.37478,0.23018-0.60344h-0.01753c0,0-0.07432,0.06812-0.11361,0.07129
			c-0.15988,0.01267-0.32507,0.02585-0.49064,0.00388c-0.19924-0.01654-0.33405-0.16182-0.34853-0.37883
			c-0.0168-0.25178,0.16383-0.34497,0.32306-0.39803c0.23071-0.07135,0.40973,0.01396,0.48081,0.22709
			c0.0181,0.05435,0.03903,0.08666,0.06411,0.09875c0.02327,0.01112,0.05726,0.00866,0.10185-0.00763
			c0.33799-0.12524,0.65802-0.59035,0.65802-0.95697c0-0.21443-0.08647-0.3239-0.27207-0.34452l-0.06178-0.00879
			c-0.17022-0.02404-0.34613-0.04899-0.5139-0.08492c-0.19866-0.03141-0.40255-0.0117-0.59979,0.00711
			c-0.36811,0.03541-0.71566,0.06889-1.00809-0.22354c-0.23058-0.23045-0.46272-0.21792-0.75612-0.2015
			C18.70343,8.05785,18.52881,8.25,18.52881,8.25h-0.63787c-0.12035,0-0.22783-0.06709-0.33186-0.13204
			c-0.11537-0.07207-0.21518-0.13404-0.30903-0.09912c-0.12416,0.05167-0.25156-0.01473-0.36416-0.07325
			c-0.0738-0.03839-0.15009-0.07809-0.21317-0.07809c-0.76664,0.03016-1.3347,0.15051-1.78878,0.65646
			c-0.0617,0.06184-0.12734,0.09725-0.18523,0.12844c-0.06495,0.035-0.12097,0.06515-0.16572,0.1227l-0.03223,0.03631
			c-0.09995,0.11136-0.18626,0.20757-0.20874,0.34258c-0.0507,0.20349-0.14186,0.29368-0.3264,0.32723l-0.11509,0.01964
			c-0.15113,0.02525-0.30613,0.05118-0.47794,0.1023c0.05976,0.02649,0.1263,0.05824,0.20349,0.10036l0.09241,0.05035
			l-0.08148,0.06668c-0.1115,0.09123-0.18046,0.14698-0.2425,0.19256c0.00692,0.00678,0.01383,0.01321,0.01722,0.01522
			c0.1126,0.06896,0.16752,0.14068,0.17299,0.22209c0.0056,0.08328-0.04219,0.1651-0.14601,0.25004
			c-0.25993,0.2104-0.33421,0.51169-0.41292,0.83069l-0.01653,0.06654c0.00332,0.01944,0.06619,0.10015,0.1236,0.1346
			c0.03299,0.01978,0.08473,0.02186,0.15632,0.02483c0.0379,0.00152,0.07975,0.00325,0.12595,0.00788l0.11731,0.01176
			l-0.06543,0.09801c-0.02006,0.03009-0.03832,0.05838-0.0554,0.0848c-0.03209,0.04973-0.06031,0.09331-0.08853,0.13086
			c-0.50312,0.62893-0.50367,1.2156-0.00304,1.79528c0.27639,0.32245,0.61537,0.71788,0.26657,1.29687
			c0.08535-0.01397,0.14407-0.02573,0.19574-0.04295c0.09019-0.02476,0.18889-0.0415,0.26553,0.0128
			c0.05734,0.04067,0.08895,0.1124,0.09656,0.21933c0.011,0.19719,0.11641,0.33151,0.34182,0.43665
			c0.05519,0.0276,0.10977,0.05333,0.16441,0.07906c0.1485,0.07007,0.30205,0.14241,0.44094,0.23855
			c0.35745,0.23828,0.55243,0.58307,0.53396,0.94523c-0.01888,0.36928-0.25225,0.69872-0.64041,0.90373
			c-0.04489,0.02248-0.08279,0.06917-0.11883,0.11772c0.00629,0.00284,0.01266,0.00574,0.01902,0.00858
			c0.05298,0.02414,0.11309,0.05139,0.14345,0.04143c0.24692-0.06923,0.48389-0.15099,0.73482-0.23759
			c0.11101-0.03832,0.22438-0.07747,0.34175-0.11654l0.05264-0.01757l0.02967,0.04689
			c0.04724,0.07484,0.0978,0.15071,0.14947,0.22832c0.13688,0.20549,0.27839,0.41797,0.3928,0.65722
			c0.05499,0.08113,0.01646,0.2037-0.02089,0.32225c0.04337-0.00671,0.09628-0.01397,0.16067-0.022
			c0.14684-0.02442,0.29942-0.03631,0.40352,0.04496c0.08508,0.06647,0.12664,0.17887,0.14338,0.38795
			c0.10154,1.05901-0.13577,2.03702-0.7055,2.90589c-0.21718,0.31747-0.36859,0.56827-0.49163,0.81437
			c-0.19685,0.37184-0.36395,0.91825-0.04613,1.41763c0.29347,0.47213,0.3338,1.01536,0.11385,1.5301
			c-0.24513,0.57339-0.78366,1.01066-1.4056,1.14124c-0.78061,0.15936-1.4424-0.0877-1.96758-0.73289
			c-0.56142-0.69803-0.7167-1.54905-0.79458-2.28955c-0.14774-1.40297,0.20542-2.64063,1.04953-3.67841
			c0.27992-0.35372,0.5119-0.73807,0.70183-1.06731c0.2748-0.48409,0.29264-1.01585,0.05284-1.58004
			c-0.18246-0.4352-0.36963-0.88153-0.52566-1.32142c-0.3006-0.81969-0.9408-1.15985-1.75572-0.93292
			c-0.1494,0.03742-0.31146,0.10057-0.49731,0.19353c-0.37481,0.20674-0.81589,0.40539-1.306,0.16005
			c-0.02843,0.07677,0.01093,0.1281,0.08293,0.21144l0.0128,0.01487c0.25749,0.25706,0.25187,0.44676-0.01686,0.73542
			c-0.35277,0.37893-0.41226,0.93553-0.10608,1.35301c0.13579,0.18515,0.26114,0.38094,0.35798,0.55836
			c0.05132,0.10257,0.0563,0.20086,0.01605,0.29451c-0.09068,0.2111-0.39722,0.34293-0.63841,0.41638
			c-0.06993,0.0175-0.24734,0.02442-0.47234,0.03161c-0.00546,0.00021-0.01093,0.00035-0.01639,0.00055
			c0.36056,0.11143,0.69021,0.11053,0.94343-0.00546c0.20155-0.09234,0.34666-0.25695,0.41977-0.47614
			c0.05803-0.1669,0.14297-0.2676,0.2528-0.30004c0.11945-0.03548,0.25827,0.01017,0.42413,0.13916
			c0.15735,0.13301,0.36306,0.19415,0.54939,0.16891c-0.01667-0.02289-0.03078-0.04454-0.04413-0.06509
			c-0.01639-0.02525-0.0323-0.04994-0.05201-0.07449c-0.13861-0.17513-0.19892-0.40836-0.16572-0.64007
			c0.03334-0.23226,0.15576-0.43865,0.33587-0.5662c0.2961-0.2075,0.7822-0.22085,1.08384-0.03043
			c0.36672,0.24997,0.54116,0.68433,0.42627,1.05755c-0.10665,0.32003-0.23876,0.71643-0.49758,0.99046
			c-0.81686,0.92759-1.25565,1.99275-1.33982,3.25449c-0.10071,1.46024,0.08867,2.5308,0.61406,3.4716
			c0.43146,0.77245,1.15992,1.30379,1.9987,1.45789c0.76768,0.14124,1.51274-0.05201,2.09844-0.54323
			c0.1624-0.13529,0.29451-0.3118,0.43436-0.49869c0.07096-0.09476,0.14435-0.19283,0.22237-0.28552
			C16.79998,26.36039,16.90698,26.25,17.03411,26.25z"/>
	</g>
	<g>
		<path class="st0" d="M20.5,35.5c-8.27101,0-15-6.72892-15-15c0-8.27101,6.72899-15,15-15c8.27108,0,15,6.72899,15,15
			C35.5,28.77108,28.77108,35.5,20.5,35.5z M20.5,6.75c-7.58179,0-13.75,6.16821-13.75,13.75s6.16821,13.75,13.75,13.75
			s13.75-6.16821,13.75-13.75S28.08179,6.75,20.5,6.75z"/>
	</g>
	<g>
		<path class="st1" d="M20.5,34.94444c-7.96468,0-14.44444-6.47976-14.44444-14.44444S12.53532,6.05556,20.5,6.05556
			S34.94444,12.53532,34.94444,20.5S28.46468,34.94444,20.5,34.94444z M20.5,6.33333c-7.81155,0-14.16667,6.35512-14.16667,14.16667
			S12.68845,34.66667,20.5,34.66667S34.66667,28.31155,34.66667,20.5S28.31155,6.33333,20.5,6.33333z"/>
	</g>
</g>
</svg>
