<?xml version="1.0" encoding="utf-8"?>
<!-- Generator: Adobe Illustrator 22.0.1, SVG Export Plug-In . SVG Version: 6.00 Build 0)  -->
<svg version="1.1" id="Layer_1" xmlns="http://www.w3.org/2000/svg" xmlns:xlink="http://www.w3.org/1999/xlink" x="0px" y="0px"
	 viewBox="0 0 1003 73.5" style="enable-background:new 0 0 1003 73.5;" xml:space="preserve">
<style type="text/css">
	.st0{fill:#565656;}
	.st1{fill:#212121;}
</style>
<g>
	<path class="st0" d="M928.5-428.2l129-151.2h18.7L937.8-418.7l143.6,167.5H1063l-134.5-158l-135.1,158h-17.8l143.6-167.5
		L780.7-579.4h18.7L928.5-428.2z"/>
</g>
<path class="st1" d="M274.7,146.8c-1.1-0.9-2.2-1.8-3.4-2.6c-1.7-1.1-3.7-1.6-5.7-1.5c-3,0-6.1,0.1-9.1,0.1c-1.6,0-3.3-1.4-3.7-3
	c-0.2-0.8,0-1.3,0.7-1.5c1.4-0.4,2.7-0.9,4.1-1.2c1.5-0.3,2.5-1.2,3-2.6c0.8-2.2,1.6-4.3,2.5-6.5c0.7-1.8,1.5-2.3,3.4-2.2
	c0.7,0,1.4,0.1,2.1,0c1.9-0.3,3-2.2,2.5-4.1c-0.5-2-2.1-2.9-4-2.2c-1.9,0.7-3.8,1.4-5.6,2.1c-1,0.4-1.8,1-2.3,1.9
	c-1.2,2.2-3,3.9-4.9,5.5c-2.8,2.3-6.8,1.9-9.2-0.9c-0.5-0.6-0.6-0.9,0.2-1.2c0.7-0.2,0.7-0.6,0.3-1.1c-0.4-0.6-0.7-1.3-1.1-1.9
	c-0.1-0.2-0.4-0.6-0.6-0.6c-1.5,0.3-2.5-0.7-3.8-1.1c-0.7-0.3-0.7-0.6-0.1-1.1c0.4-0.4,0.8-0.9,1-1.4c0.4-0.7,0.6-1.5,0.9-2.5
	c-0.3,0-0.7,0-1.1,0c-0.8,0-1.6,0.1-2.3,0.1c-0.6-0.1-1.1-0.5-1.1-1.2c0-0.8,0.5-1.1,1.1-1.3c0.7-0.2,1.3,0,1.6,0.7
	c0.2,0.5,0.4,0.7,1,0.5c1.4-0.5,2.7-2.4,2.7-4c0-0.9-0.3-1.5-1.3-1.6c-0.7-0.1-1.5-0.2-2.2-0.3c-2.3-0.4-4.5,0.9-6.1-0.8
	c-1.2-1.2-2.5-0.8-4.1-0.8h-2.4c-0.8,0-1.6-1.1-2.4-0.8c-0.6,0.2-1.3-0.6-2-0.6c-2.6,0.1-4.9,0.5-6.7,2.5c-0.4,0.4-0.9,0.5-1.3,0.9
	c-0.4,0.5-0.8,0.9-1,1.5c-0.1,0.6-0.4,0.9-1,1c-0.9,0.2-1.8,0.3-2.8,0.6c0.4,0.2,0.8,0.3,1.3,0.6c-0.6,0.5-0.8,0.6-1.1,0.9
	c0.1,0.1,0.2,0.2,0.4,0.3c0.7,0.4,0.6,0.8,0,1.3c-1.1,0.9-1.4,2.1-1.7,3.4c-0.1,0.2,0.3,0.6,0.6,0.8c0.3,0.1,0.6,0.1,1.1,0.1
	c-0.2,0.3-0.4,0.5-0.5,0.8c-1.9,2.3-2,4.6,0,6.9c1.3,1.5,2.2,2.8,0.6,4.9c0.7-0.1,1-0.2,1.3-0.3c0.5-0.1,0.9-0.1,1,0.6
	c0.1,0.9,0.6,1.4,1.4,1.8c0.7,0.3,1.5,0.7,2.2,1.1c2.6,1.7,2.4,4.9-0.4,6.3c-0.3,0.2-0.5,0.5-0.7,0.8c0.4,0.1,0.8,0.4,1.1,0.3
	c1.3-0.4,2.5-0.8,3.9-1.3c0.6,1,1.4,2,2,3.2c0.2,0.3-0.1,0.9-0.2,1.4c0.2,0,0.6-0.1,1-0.2c1.2-0.2,1.6,0.1,1.7,1.4
	c0.3,3.8-0.4,7.3-2.5,10.4c-0.6,1-1.3,2-1.8,3c-1,1.8-1.2,3.7-0.1,5.4c2.4,3.8-0.4,8.4-4.5,9.3c-2.8,0.6-5.1-0.3-6.9-2.6
	c-1.9-2.4-2.5-5.3-2.8-8.2c-0.5-4.9,0.6-9.3,3.8-13.2c1-1.2,1.8-2.6,2.6-3.9c1.1-1.9,1.1-3.9,0.2-6c-0.7-1.6-1.3-3.2-1.9-4.8
	c-1.1-3.1-3.6-4.4-6.7-3.6c-0.6,0.2-1.3,0.4-1.8,0.7c-1.5,0.8-3,1.4-4.7,0.4c-0.4,0.6-0.1,1,0.3,1.3c0.8,0.8,0.8,1.3,0.1,2.2
	c-1.8,2-1.8,3.5-0.3,5.7c0.4,0.5,0.7,1.1,1,1.6c0.5,1.1-0.9,1.8-2.1,2.2c-0.4,0.1-2.5,0.1-2.5,0.2v0.2c2.9,1.2,5.3,0.5,6.1-1.6
	c0.4-1.2,1.1-1.2,2.1-0.4c0.7,0.5,1.7,0.9,2.7,0.5c-0.3-0.3-0.4-0.6-0.6-0.8c-1-1.3-0.7-3.2,0.6-4c1-0.7,2.7-0.7,3.6-0.1
	c1.1,0.8,1.9,2.2,1.4,3.5c-0.4,1.2-0.9,2.6-1.7,3.5c-3,3.4-4.6,7.4-5,12c-0.3,4.5,0.1,8.8,2.3,12.8c3.2,5.7,10.5,7.4,15.3,3.4
	c0.9-0.8,1.6-1.9,2.4-2.9c0.7-0.8,1.1-1,1.7-0.2c0.8,1,1.5,2.2,2,3.4c0.5,1.2,0.3,2.6-0.2,3.8c-0.4,1-1.4,1.1-2.2,1.4
	c-1.6,0.6-2.2,1.9-1.8,3.6c0.2,0.8,0.5,1.7,1,2.4c2.2,3.6,4.4,7.1,6.6,10.7c0.5,0.7,1.1,1.1,2,1.1c1.2,0,2.3,0,3.4,0
	c2.2,0,4.5,0,6.7,0c0.6,0,1.2-0.1,1.2-1c0-2.5-2.3-4.7-4.7-4.4c-0.4,0-0.8,0.1-1.3,0c-1.3-0.1-2.3-0.7-2.8-1.9
	c-1.2-3.1-1.3-7.6,2.1-10.3c2.4-1.9,3.2-4.5,2.7-7.4c-0.3-1.8-0.8-3.6-1.1-5.4c-0.2-1,0.1-1.5,1-1.4c1.6,0.3,3.2,0.6,4.6,1.3
	c2.3,1.1,2.5,3,0.7,4.9c-1.5,1.5-1.3,2.9,0.2,4.3c1.8,1.5,3.5,3,5.2,4.5c0.7,0.6,1.5,1.2,1.9,1.9c1.1,1.7,2.6,2.4,4.5,2.4
	c3-0.1,5.9-0.4,8.9-0.6c0.6,0,1.1-0.3,1.2-1c0.4-2.8-2.6-5.7-4.9-5.1c-2.1,0.5-3.8-0.2-5.3-1.6c-1.6-1.5-1.8-2.7-0.6-4.6
	c1.7-2.7,2.5-5.6,2.9-8.7c0.3-2.3-0.5-4.1-2.4-5.4c-0.9-0.6-1.9-1-2.8-1.4c-2.2-0.9-4.4-1.6-6.5-2.5c-1.2-0.5-1.4-1.2-0.7-2.3
	c1-1.6,2.2-3.2,3.3-4.7c0.4-0.5,0.9-0.5,1.5-0.2c1.4,0.8,2.9,1.1,4.4,0.7c1.7-0.4,3.4-1.1,5.1-1.6c1.6-0.5,3.2-1,4.8-1.3
	c1.3-0.3,2,0.1,2.6,1.2c0.9,1.7,2.8,2.7,4.6,2.4c1.5-0.2,2.2-1.3,2.7-2.6C276.1,148.5,275.6,147.5,274.7,146.8z"/>
<g>
	<path class="st1" d="M23.6,66.7c0.5,1,1.6,1.8,3.1,2.2c1.5,0.4,3.9,0.6,7.2,0.6c0.2,0,0.3,0.2,0.3,0.6s-0.1,0.6-0.3,0.6
		c-2.9,0-5.2,0-6.8-0.1l-9.2-0.1l-7.6,0.1c-1.3,0.1-3.2,0.1-5.5,0.1c-0.2,0-0.3-0.2-0.3-0.6s0.1-0.6,0.3-0.6c2.4,0,4.1-0.2,5.2-0.5
		c1.1-0.4,1.8-1,2.2-2c0.4-1,0.6-2.6,0.6-4.8V13c0-2.1-0.2-3.7-0.6-4.7c-0.4-1-1.1-1.7-2.2-2.1C8.6,5.9,6.9,5.7,4.6,5.7
		C4.4,5.7,4.3,5.5,4.3,5s0.1-0.6,0.3-0.6l5.5,0.1c3.1,0.1,5.6,0.2,7.5,0.2c1.6,0,3.6-0.1,5.9-0.3c0.8-0.1,2-0.1,3.5-0.2
		c1.5-0.1,3.2-0.1,5.2-0.1c7,0,12.5,1.5,16.6,4.5c4.1,3,6.1,7.5,6.1,13.7c0,4.5-1.2,8.2-3.5,11.4c-2.3,3.1-5.2,5.5-8.8,7
		c-3.6,1.6-7.2,2.3-11,2.3c-2,0-3.6-0.2-5-0.5c-0.2,0-0.3-0.2-0.3-0.5c0-0.2,0.1-0.4,0.2-0.6c0.1-0.2,0.2-0.3,0.4-0.2
		c1.1,0.3,2.4,0.4,3.7,0.4c3.7,0,6.8-1.5,9.3-4.6c2.5-3,3.8-7.4,3.8-13.1c0-5.6-1.3-9.9-3.9-13C37.2,7.8,33.6,6.2,29,6.2
		c-1.7,0-3,0.2-3.9,0.5c-0.9,0.4-1.5,1-1.9,2c-0.4,1-0.5,2.5-0.5,4.5v48.5C22.8,64,23,65.7,23.6,66.7z"/>
	<path class="st1" d="M78,67c0.4,1,1.1,1.7,2.2,2c1.1,0.4,2.8,0.5,5.3,0.5c0.2,0,0.3,0.2,0.3,0.6s-0.1,0.6-0.3,0.6
		c-2.3,0-4.1,0-5.4-0.1l-7.9-0.1l-7.6,0.1c-1.3,0.1-3.2,0.1-5.5,0.1c-0.2,0-0.3-0.2-0.3-0.6s0.1-0.6,0.3-0.6c2.4,0,4.2-0.2,5.3-0.5
		c1.1-0.4,1.9-1,2.3-2.1c0.4-1,0.6-2.6,0.6-4.7V13c0-2.1-0.2-3.7-0.6-4.7c-0.4-1-1.2-1.7-2.3-2.1c-1.1-0.4-2.9-0.6-5.3-0.6
		c-0.2,0-0.3-0.2-0.3-0.6s0.1-0.6,0.3-0.6l5.5,0.1c3.1,0.1,5.7,0.2,7.6,0.2c2.2,0,4.8-0.1,8-0.2l5.3-0.1c0.2,0,0.3,0.2,0.3,0.6
		s-0.1,0.6-0.3,0.6c-2.3,0-4.1,0.2-5.2,0.6c-1.1,0.4-1.8,1.2-2.2,2.2c-0.4,1-0.6,2.6-0.6,4.7v49C77.4,64.4,77.6,66,78,67z"/>
	<path class="st1" d="M141.6,54c0.2,0,0.4,0.1,0.6,0.2c0.2,0.1,0.3,0.2,0.3,0.3c-0.7,5.4-1.1,10.3-1.1,14.8c0,0.6-0.1,1-0.3,1.2
		c-0.2,0.2-0.6,0.4-1.3,0.4H93.7c-0.2,0-0.3-0.2-0.3-0.6s0.1-0.6,0.3-0.6c2.4,0,4.2-0.2,5.3-0.5c1.1-0.4,1.8-1,2.2-2.1
		c0.4-1,0.6-2.6,0.6-4.7V13c0-2.1-0.2-3.7-0.6-4.7c-0.4-1-1.2-1.7-2.3-2.1c-1.1-0.4-2.9-0.6-5.2-0.6c-0.2,0-0.3-0.2-0.3-0.6
		s0.1-0.6,0.3-0.6h44.2c0.7,0,1.1,0.3,1.1,1l0.2,13.8c0,0.1-0.2,0.2-0.6,0.3c-0.4,0.1-0.6,0-0.7-0.2c-1.7-8.1-6.6-12.1-14.8-12.1
		h-4.2c-2.5,0-4.4,0.5-5.4,1.4c-1.1,0.9-1.6,2.5-1.6,4.7v21.7H122c7.8,0,11.7-2.6,11.7-7.9c0-0.2,0.2-0.3,0.6-0.3
		c0.4,0,0.6,0.1,0.6,0.3l-0.1,9.2l0.1,5c0.1,2.3,0.2,4.1,0.2,5.5c0,0.1-0.2,0.2-0.6,0.2s-0.6-0.1-0.6-0.2c0-6.1-4-9.1-11.9-9.1
		h-10.1v24.1c0,2.3,0.4,4,1.3,4.9c0.9,0.9,2.5,1.4,4.7,1.4h5.2c9.5,0,15.5-4.6,18.1-13.8C141.1,54.1,141.3,54,141.6,54z"/>
	<path class="st1" d="M220.1,70.2c0,0.4-0.1,0.6-0.3,0.6h-17.1c-1.6,0-4.7-2.8-9.1-8.5c-4.4-5.7-9.8-13.6-16.1-23.8
		c-1.6,0.1-2.8,0.2-3.6,0.2c-1.6,0-3.4-0.1-5.5-0.2v23.7c0,2.2,0.2,3.8,0.6,4.8c0.4,1,1.1,1.7,2.2,2c1.1,0.4,2.8,0.5,5.3,0.5
		c0.1,0,0.2,0.2,0.2,0.6s-0.1,0.6-0.2,0.6c-2.3,0-4.1,0-5.4-0.1l-7.9-0.1l-7.6,0.1c-1.3,0.1-3.2,0.1-5.5,0.1c-0.2,0-0.3-0.2-0.3-0.6
		s0.1-0.6,0.3-0.6c2.4,0,4.2-0.2,5.3-0.5c1.1-0.4,1.9-1,2.3-2.1c0.4-1,0.6-2.6,0.6-4.7V13c0-2.1-0.2-3.7-0.6-4.7
		c-0.4-1-1.2-1.7-2.3-2.1c-1.1-0.4-2.9-0.6-5.2-0.6c-0.1,0-0.2-0.2-0.2-0.6s0.1-0.6,0.2-0.6l5.5,0.1c3.1,0.1,5.6,0.2,7.5,0.2
		c2.3,0,4.9-0.1,7.6-0.3c0.9-0.1,2-0.1,3.3-0.2c1.3-0.1,2.8-0.1,4.4-0.1c6.2,0,10.9,1.2,14.3,3.6c3.4,2.4,5,5.8,5,10.1
		c0,3.9-1.1,7.4-3.2,10.5c-2.2,3.1-5,5.6-8.7,7.4c5.8,8.6,10.7,15.3,14.5,20.1c3.9,4.8,7.3,8.3,10.4,10.5c3,2.2,6,3.2,8.9,3.2
		C220,69.5,220.1,69.7,220.1,70.2z M174.5,36.1c4.6,0,7.9-1.1,9.9-3.5c2-2.3,3-6,3-11.1c0-5.7-1-9.7-2.9-12
		c-1.9-2.3-4.8-3.4-8.4-3.4c-2.8,0-4.7,0.5-5.9,1.5c-1.2,1-1.8,2.9-1.8,5.6v22.4C170.1,35.9,172.1,36.1,174.5,36.1z"/>
	<path class="st1" d="M244.1,66.7c0.5,1,1.6,1.8,3.1,2.2c1.5,0.4,3.9,0.6,7.2,0.6c0.2,0,0.3,0.2,0.3,0.6s-0.1,0.6-0.3,0.6
		c-2.9,0-5.2,0-6.8-0.1l-9.2-0.1l-7.6,0.1c-1.3,0.1-3.2,0.1-5.5,0.1c-0.2,0-0.3-0.2-0.3-0.6s0.1-0.6,0.3-0.6c2.4,0,4.1-0.2,5.2-0.5
		c1.1-0.4,1.8-1,2.2-2c0.4-1,0.6-2.6,0.6-4.8V13c0-2.1-0.2-3.7-0.6-4.7c-0.4-1-1.1-1.7-2.2-2.1c-1.1-0.4-2.8-0.6-5.2-0.6
		c-0.2,0-0.3-0.2-0.3-0.6s0.1-0.6,0.3-0.6l5.5,0.1c3.1,0.1,5.6,0.2,7.5,0.2c1.6,0,3.6-0.1,5.9-0.3c0.8-0.1,2-0.1,3.5-0.2
		c1.5-0.1,3.2-0.1,5.2-0.1c7,0,12.5,1.5,16.6,4.5c4.1,3,6.1,7.5,6.1,13.7c0,4.5-1.2,8.2-3.5,11.4c-2.3,3.1-5.2,5.5-8.8,7
		c-3.6,1.6-7.2,2.3-11,2.3c-2,0-3.6-0.2-5-0.5c-0.2,0-0.3-0.2-0.3-0.5c0-0.2,0.1-0.4,0.2-0.6c0.1-0.2,0.2-0.3,0.4-0.2
		c1.1,0.3,2.4,0.4,3.7,0.4c3.7,0,6.8-1.5,9.3-4.6c2.5-3,3.8-7.4,3.8-13.1c0-5.6-1.3-9.9-3.9-13c-2.6-3.1-6.2-4.6-10.8-4.6
		c-1.7,0-3,0.2-3.9,0.5c-0.9,0.4-1.5,1-1.9,2c-0.4,1-0.5,2.5-0.5,4.5v48.5C243.3,64,243.6,65.7,244.1,66.7z"/>
	<path class="st1" d="M298.8,67.4c-5.1-3.1-9.1-7.3-11.9-12.5c-2.8-5.3-4.2-11-4.2-17.3c0-7.3,1.8-13.5,5.5-18.7
		c3.7-5.2,8.4-9.1,14.2-11.7c5.8-2.6,11.7-3.9,17.7-3.9c6.7,0,12.6,1.6,17.7,4.7c5.1,3.2,9,7.3,11.7,12.5c2.7,5.2,4.1,10.7,4.1,16.5
		c0,6.4-1.7,12.4-5.1,17.7c-3.4,5.4-7.9,9.6-13.6,12.7c-5.7,3.1-11.9,4.7-18.5,4.7C309.7,72.1,303.9,70.5,298.8,67.4z M331.4,66.1
		c3.4-2.3,6-5.7,8-10.1c1.9-4.5,2.9-9.8,2.9-15.9c0-6.5-1.1-12.4-3.2-17.5c-2.2-5.2-5.2-9.2-9.2-12.1c-4-2.9-8.7-4.4-14.1-4.4
		c-6.9,0-12.2,2.5-16,7.4c-3.8,4.9-5.7,11.7-5.7,20.4c0,6.7,1.1,12.8,3.3,18.3c2.2,5.5,5.3,9.7,9.2,12.8c3.9,3.1,8.4,4.6,13.3,4.6
		C324.2,69.5,328,68.4,331.4,66.1z"/>
	<path class="st1" d="M431.1,5c0,0.4-0.1,0.6-0.2,0.6c-2.8,0-5,1-6.6,3c-1.6,2-2.3,4.9-2.3,8.7v54.9c0,0.2-0.2,0.4-0.5,0.4
		c-0.4,0.1-0.6,0-0.7-0.1l-49.8-57.9v43.2c0,3.8,0.7,6.6,2.2,8.6c1.5,2,3.6,3,6.5,3c0.1,0,0.2,0.2,0.2,0.6s-0.1,0.6-0.2,0.6
		c-1.9,0-3.4,0-4.4-0.1l-5.6-0.1l-6.3,0.1c-1.1,0.1-2.8,0.1-4.9,0.1c-0.2,0-0.3-0.2-0.3-0.6s0.1-0.6,0.3-0.6c3,0,5.4-1,7.1-3
		c1.7-2,2.5-4.8,2.5-8.6V11.4c-2-2.1-3.8-3.6-5.4-4.5c-1.6-0.8-3.2-1.3-4.9-1.3c-0.1,0-0.2-0.2-0.2-0.6s0.1-0.6,0.2-0.6l4.2,0.1
		c0.9,0.1,2.2,0.1,3.9,0.1l6.8-0.1c0.8-0.1,1.9-0.1,3.1-0.1c0.6,0,1,0.1,1.3,0.4c0.3,0.3,0.7,0.8,1.3,1.7l2.5,3.4l38.2,45V17.4
		c0-3.8-0.7-6.6-2.2-8.7s-3.6-3-6.4-3c-0.1,0-0.2-0.2-0.2-0.6s0.1-0.6,0.2-0.6l4.4,0.1c2.3,0.1,4.1,0.2,5.6,0.2
		c1.4,0,3.3-0.1,5.7-0.2l4.7-0.1C431,4.4,431.1,4.6,431.1,5z"/>
	<path class="st1" d="M444.2,10.6c-2.8,2.7-4.9,6.7-6.4,12.1c0,0.1-0.2,0.2-0.6,0.2c-0.4,0-0.6-0.1-0.6-0.3c0.3-2.8,0.6-6.3,1-10.7
		c0.4-4.4,0.5-7.6,0.5-9.8c0-0.4,0.2-0.5,0.6-0.5c0.4,0,0.6,0.2,0.6,0.5c0,1.6,2,2.3,5.9,2.3c6.1,0.2,13.2,0.3,21.3,0.3
		c4.2,0,8.6-0.1,13.3-0.2l7.2-0.1c2.7,0,4.7-0.2,5.9-0.5c1.2-0.4,2-1.1,2.4-2.1c0.1-0.3,0.3-0.4,0.6-0.4c0.4,0,0.5,0.1,0.5,0.4
		c-0.2,2.2-0.4,5.5-0.6,10c-0.2,4.5-0.3,8.1-0.3,10.8c0,0.2-0.2,0.3-0.6,0.3c-0.4,0-0.6-0.1-0.7-0.3c-0.7-5.5-2.4-9.5-5-12.1
		c-2.6-2.6-6.2-3.9-10.6-3.9c-2,0-3.5,0.2-4.4,0.5c-1,0.4-1.6,1-1.9,1.9c-0.3,0.9-0.5,2.3-0.5,4.2v49c0,2.2,0.2,3.8,0.6,4.8
		c0.4,1,1.3,1.7,2.5,2c1.3,0.4,3.3,0.5,6.1,0.5c0.2,0,0.3,0.2,0.3,0.6s-0.1,0.6-0.3,0.6c-2.5,0-4.4,0-5.8-0.1l-8.7-0.1l-8.3,0.1
		c-1.5,0.1-3.5,0.1-6.2,0.1c-0.1,0-0.2-0.2-0.2-0.6s0.1-0.6,0.2-0.6c2.8,0,4.8-0.2,6.1-0.5c1.3-0.4,2.2-1,2.7-2.1
		c0.5-1,0.7-2.6,0.7-4.7V13c0-1.8-0.2-3.2-0.5-4c-0.4-0.8-1-1.5-1.9-1.8c-0.9-0.4-2.3-0.5-4.2-0.5C450.6,6.6,447,8,444.2,10.6z"/>
	<path class="st1" d="M557.6,61.8c0,1.9,0.2,3.3,0.5,4.1c0.3,0.8,0.9,1.4,1.9,1.7c0.9,0.3,2.4,0.4,4.5,0.4h6.4c5,0,9.3-1.4,12.7-4.2
		c3.5-2.8,5.8-6.6,6.9-11.3c0.1-0.2,0.3-0.3,0.6-0.3c0.4,0,0.5,0.2,0.5,0.4c-0.6,6.7-1,12.2-1,16.6c0,0.6-0.1,1-0.3,1.2
		c-0.2,0.2-0.6,0.4-1.3,0.4h-49.7c-0.1,0-0.2-0.2-0.2-0.6s0.1-0.6,0.2-0.6c2.4,0,4.2-0.2,5.3-0.5c1.1-0.4,1.8-1,2.2-2.1
		c0.4-1,0.6-2.6,0.6-4.7V13c0-2.1-0.2-3.7-0.6-4.7c-0.4-1-1.2-1.7-2.3-2.1c-1.1-0.4-2.9-0.6-5.2-0.6c-0.1,0-0.2-0.2-0.2-0.6
		s0.1-0.6,0.2-0.6l5.4,0.1c3.1,0.1,5.7,0.2,7.6,0.2c2.1,0,4.7-0.1,7.9-0.2l5.3-0.1c0.2,0,0.3,0.2,0.3,0.6s-0.1,0.6-0.3,0.6
		c-2.3,0-4.1,0.2-5.2,0.6c-1.1,0.4-1.8,1.1-2.2,2.1c-0.4,1-0.6,2.6-0.6,4.7V61.8z"/>
	<path class="st1" d="M645.8,54c0.2,0,0.4,0.1,0.6,0.2c0.2,0.1,0.3,0.2,0.3,0.3c-0.7,5.4-1.1,10.3-1.1,14.8c0,0.6-0.1,1-0.3,1.2
		c-0.2,0.2-0.6,0.4-1.3,0.4h-46.1c-0.2,0-0.3-0.2-0.3-0.6s0.1-0.6,0.3-0.6c2.4,0,4.2-0.2,5.3-0.5c1.1-0.4,1.8-1,2.2-2.1
		c0.4-1,0.6-2.6,0.6-4.7V13c0-2.1-0.2-3.7-0.6-4.7c-0.4-1-1.2-1.7-2.3-2.1c-1.1-0.4-2.9-0.6-5.2-0.6c-0.2,0-0.3-0.2-0.3-0.6
		s0.1-0.6,0.3-0.6h44.2c0.7,0,1.1,0.3,1.1,1l0.2,13.8c0,0.1-0.2,0.2-0.6,0.3c-0.4,0.1-0.6,0-0.7-0.2c-1.7-8.1-6.6-12.1-14.8-12.1
		h-4.2c-2.5,0-4.4,0.5-5.4,1.4c-1.1,0.9-1.6,2.5-1.6,4.7v21.7h10.2c7.8,0,11.7-2.6,11.7-7.9c0-0.2,0.2-0.3,0.6-0.3
		c0.4,0,0.6,0.1,0.6,0.3l-0.1,9.2l0.1,5c0.1,2.3,0.2,4.1,0.2,5.5c0,0.1-0.2,0.2-0.6,0.2s-0.6-0.1-0.6-0.2c0-6.1-4-9.1-11.9-9.1H616
		v24.1c0,2.3,0.4,4,1.3,4.9c0.9,0.9,2.5,1.4,4.7,1.4h5.2c9.5,0,15.5-4.6,18.1-13.8C645.4,54.1,645.5,54,645.8,54z"/>
	<path class="st1" d="M728.5,70.2c0,0.4-0.2,0.6-0.5,0.6c-1.3,0-3.5-0.1-6.5-0.2c-3-0.1-5.1-0.2-6.5-0.2c-1.8,0-3.9,0.1-6.3,0.2
		c-2.4,0.1-4.3,0.2-5.6,0.2c-0.3,0-0.4-0.2-0.4-0.6s0.1-0.6,0.4-0.6c2.1,0,3.6-0.2,4.5-0.7c1-0.5,1.4-1.2,1.4-2.3
		c0-1.1-0.6-2.9-1.8-5.4l-8.1-16.4h-25.7l-5.1,11.5c-0.9,2.1-1.4,4-1.4,5.7c0,2.5,0.9,4.4,2.7,5.6c1.8,1.3,4.2,1.9,7.4,1.9
		c0.4,0,0.5,0.2,0.5,0.6s-0.2,0.6-0.5,0.6c-1.3,0-3.1-0.1-5.5-0.2c-2.7-0.1-5-0.2-7-0.2c-1.9,0-4.1,0.1-6.7,0.2
		c-2.3,0.1-4.1,0.2-5.6,0.2c-0.4,0-0.5-0.2-0.5-0.6s0.2-0.6,0.5-0.6c2,0,3.6-0.4,5-1.2c1.3-0.8,2.7-2.2,3.9-4.2s2.8-5,4.6-9
		l22.8-51.4c0.1-0.2,0.5-0.3,1-0.3c0.5,0,0.8,0.1,0.8,0.3l26,52.5c2.5,5.1,4.5,8.6,6.2,10.5c1.7,1.9,3.5,2.8,5.4,2.8
		C728.3,69.5,728.5,69.7,728.5,70.2z M674.6,42.1h23.3l-12.2-24.7L674.6,42.1z"/>
	<path class="st1" d="M733,10.6c-2.8,2.7-4.9,6.7-6.4,12.1c0,0.1-0.2,0.2-0.6,0.2c-0.4,0-0.6-0.1-0.6-0.3c0.3-2.8,0.6-6.3,1-10.7
		c0.4-4.4,0.5-7.6,0.5-9.8c0-0.4,0.2-0.5,0.6-0.5c0.4,0,0.6,0.2,0.6,0.5c0,1.6,2,2.3,5.9,2.3c6.1,0.2,13.2,0.3,21.3,0.3
		c4.2,0,8.6-0.1,13.3-0.2l7.2-0.1c2.7,0,4.7-0.2,5.9-0.5c1.2-0.4,2-1.1,2.4-2.1c0.1-0.3,0.3-0.4,0.6-0.4c0.4,0,0.5,0.1,0.5,0.4
		c-0.2,2.2-0.4,5.5-0.6,10c-0.2,4.5-0.3,8.1-0.3,10.8c0,0.2-0.2,0.3-0.6,0.3c-0.4,0-0.6-0.1-0.7-0.3c-0.7-5.5-2.4-9.5-5-12.1
		c-2.6-2.6-6.2-3.9-10.6-3.9c-2,0-3.5,0.2-4.4,0.5c-1,0.4-1.6,1-1.9,1.9c-0.3,0.9-0.5,2.3-0.5,4.2v49c0,2.2,0.2,3.8,0.6,4.8
		c0.4,1,1.3,1.7,2.5,2c1.3,0.4,3.3,0.5,6.1,0.5c0.2,0,0.3,0.2,0.3,0.6s-0.1,0.6-0.3,0.6c-2.5,0-4.4,0-5.8-0.1l-8.7-0.1l-8.3,0.1
		c-1.5,0.1-3.5,0.1-6.2,0.1c-0.1,0-0.2-0.2-0.2-0.6s0.1-0.6,0.2-0.6c2.8,0,4.8-0.2,6.1-0.5c1.3-0.4,2.2-1,2.7-2.1
		c0.5-1,0.7-2.6,0.7-4.7V13c0-1.8-0.2-3.2-0.5-4c-0.4-0.8-1-1.5-1.9-1.8c-0.9-0.4-2.3-0.5-4.2-0.5C739.3,6.6,735.8,8,733,10.6z"/>
	<path class="st1" d="M866.7,70.2c0,0.4-0.1,0.6-0.3,0.6c-2.4,0-4.4,0-5.8-0.1l-7.8-0.1l-9,0.1c-1.3,0.1-3,0.1-5.1,0.1
		c-0.2,0-0.3-0.2-0.3-0.6s0.1-0.6,0.3-0.6c2.7,0,4.6-0.2,5.8-0.5c1.2-0.4,2-1,2.4-2c0.4-1,0.6-2.6,0.6-4.8V37.7h-36.4v24.5
		c0,2.1,0.2,3.7,0.6,4.7c0.4,1,1.3,1.7,2.5,2.1c1.2,0.4,3.2,0.5,5.9,0.5c0.1,0,0.2,0.2,0.2,0.6s-0.1,0.6-0.2,0.6
		c-2.4,0-4.3,0-5.6-0.1l-8.8-0.1l-7.8,0.1c-1.3,0.1-3.2,0.1-5.6,0.1c-0.1,0-0.2-0.2-0.2-0.6s0.1-0.6,0.2-0.6c2.5,0,4.4-0.2,5.6-0.5
		c1.2-0.4,2-1,2.4-2.1c0.4-1,0.6-2.6,0.6-4.7V13c0-2.1-0.2-3.7-0.6-4.7c-0.4-1-1.2-1.7-2.4-2.1c-1.2-0.4-3-0.6-5.5-0.6
		c-0.1,0-0.2-0.2-0.2-0.6s0.1-0.6,0.2-0.6l5.6,0.1c3.3,0.1,5.8,0.2,7.6,0.2c2.5,0,5.4-0.1,8.8-0.2l5.6-0.1c0.1,0,0.2,0.2,0.2,0.6
		s-0.1,0.6-0.2,0.6c-2.6,0-4.5,0.2-5.8,0.6c-1.2,0.4-2.1,1.2-2.5,2.2c-0.5,1-0.7,2.6-0.7,4.7v21.7h36.4V13.2c0-2.1-0.2-3.7-0.6-4.7
		c-0.4-1-1.3-1.8-2.5-2.2c-1.2-0.4-3.2-0.6-5.8-0.6c-0.2,0-0.3-0.2-0.3-0.6s0.1-0.6,0.3-0.6l5.1,0.1c3.4,0.1,6.4,0.2,9,0.2
		c1.9,0,4.5-0.1,7.8-0.2l5.8-0.1c0.2,0,0.3,0.2,0.3,0.6s-0.1,0.6-0.3,0.6c-2.5,0-4.4,0.2-5.6,0.6c-1.2,0.4-2,1.1-2.4,2.1
		c-0.4,1-0.6,2.5-0.6,4.7v49.2c0,2.1,0.2,3.7,0.6,4.7c0.4,1,1.2,1.7,2.4,2.1c1.2,0.4,3,0.5,5.6,0.5
		C866.5,69.5,866.7,69.7,866.7,70.2z"/>
	<path class="st1" d="M921.9,54c0.2,0,0.4,0.1,0.6,0.2s0.3,0.2,0.3,0.3c-0.7,5.4-1.1,10.3-1.1,14.8c0,0.6-0.1,1-0.3,1.2
		c-0.2,0.2-0.6,0.4-1.3,0.4H874c-0.2,0-0.3-0.2-0.3-0.6s0.1-0.6,0.3-0.6c2.4,0,4.2-0.2,5.3-0.5c1.1-0.4,1.8-1,2.2-2.1
		c0.4-1,0.6-2.6,0.6-4.7V13c0-2.1-0.2-3.7-0.6-4.7c-0.4-1-1.2-1.7-2.3-2.1c-1.1-0.4-2.9-0.6-5.2-0.6c-0.2,0-0.3-0.2-0.3-0.6
		s0.1-0.6,0.3-0.6h44.2c0.7,0,1.1,0.3,1.1,1l0.2,13.8c0,0.1-0.2,0.2-0.6,0.3c-0.4,0.1-0.6,0-0.7-0.2c-1.7-8.1-6.6-12.1-14.8-12.1
		h-4.2c-2.5,0-4.4,0.5-5.4,1.4c-1.1,0.9-1.6,2.5-1.6,4.7v21.7h10.2c7.8,0,11.7-2.6,11.7-7.9c0-0.2,0.2-0.3,0.6-0.3
		c0.4,0,0.6,0.1,0.6,0.3l-0.1,9.2l0.1,5c0.1,2.3,0.2,4.1,0.2,5.5c0,0.1-0.2,0.2-0.6,0.2s-0.6-0.1-0.6-0.2c0-6.1-4-9.1-11.9-9.1
		h-10.1v24.1c0,2.3,0.4,4,1.3,4.9c0.9,0.9,2.5,1.4,4.7,1.4h5.2c9.5,0,15.5-4.6,18.1-13.8C921.5,54.1,921.7,54,921.9,54z"/>
	<path class="st1" d="M1000.5,70.2c0,0.4-0.1,0.6-0.3,0.6H983c-1.6,0-4.7-2.8-9.1-8.5c-4.4-5.7-9.8-13.6-16.1-23.8
		c-1.6,0.1-2.8,0.2-3.6,0.2c-1.6,0-3.4-0.1-5.5-0.2v23.7c0,2.2,0.2,3.8,0.6,4.8c0.4,1,1.1,1.7,2.2,2c1.1,0.4,2.8,0.5,5.3,0.5
		c0.1,0,0.2,0.2,0.2,0.6s-0.1,0.6-0.2,0.6c-2.3,0-4.1,0-5.4-0.1l-7.9-0.1l-7.6,0.1c-1.3,0.1-3.2,0.1-5.5,0.1c-0.2,0-0.3-0.2-0.3-0.6
		s0.1-0.6,0.3-0.6c2.4,0,4.2-0.2,5.3-0.5c1.1-0.4,1.9-1,2.3-2.1c0.4-1,0.6-2.6,0.6-4.7V13c0-2.1-0.2-3.7-0.6-4.7
		c-0.4-1-1.2-1.7-2.3-2.1c-1.1-0.4-2.9-0.6-5.2-0.6c-0.1,0-0.2-0.2-0.2-0.6s0.1-0.6,0.2-0.6l5.5,0.1c3.1,0.1,5.6,0.2,7.5,0.2
		c2.3,0,4.9-0.1,7.6-0.3c0.9-0.1,2-0.1,3.3-0.2c1.3-0.1,2.8-0.1,4.4-0.1c6.2,0,10.9,1.2,14.3,3.6c3.4,2.4,5,5.8,5,10.1
		c0,3.9-1.1,7.4-3.2,10.5c-2.2,3.1-5,5.6-8.7,7.4c5.8,8.6,10.7,15.3,14.5,20.1c3.9,4.8,7.3,8.3,10.4,10.5c3,2.2,6,3.2,8.9,3.2
		C1000.3,69.5,1000.5,69.7,1000.5,70.2z M954.9,36.1c4.6,0,7.9-1.1,9.9-3.5c2-2.3,3-6,3-11.1c0-5.7-1-9.7-2.9-12
		c-1.9-2.3-4.8-3.4-8.4-3.4c-2.8,0-4.7,0.5-5.9,1.5c-1.2,1-1.8,2.9-1.8,5.6v22.4C950.4,35.9,952.5,36.1,954.9,36.1z"/>
</g>
<g>
</g>
<g>
</g>
<g>
</g>
<g>
</g>
<g>
</g>
<g>
</g>
</svg>
