<?xml version="1.0" encoding="utf-8"?>
<!-- Generator: Adobe Illustrator 22.0.1, SVG Export Plug-In . SVG Version: 6.00 Build 0)  -->
<svg version="1.1" id="Layer_1" xmlns="http://www.w3.org/2000/svg" xmlns:xlink="http://www.w3.org/1999/xlink" x="0px" y="0px"
	 viewBox="0 0 30.7602501 31.25" style="enable-background:new 0 0 30.7602501 31.25;" xml:space="preserve">
<style type="text/css">
	.st0{fill:#616161;}
</style>
<g>
	<g>
		<path class="st0" d="M15.2602501,30.75c-8.2710505,0-15-6.728981-15-15s6.72895-15,15-15s15,6.7289801,15,15
			S23.5312996,30.75,15.2602501,30.75z M15.2602501,1.77941c-7.7034302,0-13.9705896,6.2672-13.9705896,13.9705896
			s6.2671599,13.9705887,13.9705896,13.9705887S29.2308292,23.4533901,29.2308292,15.75S22.9636707,1.77941,15.2602501,1.77941z"/>
	</g>
	<g>
		<path class="st0" d="M24.0636005,14.6347504c-0.2568798-0.1984997-0.5020809-0.4086704-0.78232-0.5838203
			c-0.3969994-0.2568798-0.8290195-0.3502903-1.2960701-0.3386097c-0.6889095,0.0116796-1.3778095,0.0233498-2.0667095,0.0233498
			c-0.3619709,0-0.7356091-0.3269396-0.8407001-0.6655502c-0.0467091-0.1751499-0.0116692-0.2919102,0.1634693-0.3386097
			c0.3035793-0.0934095,0.6071701-0.1984997,0.92243-0.2685604c0.3386192-0.0817299,0.5604591-0.2568798,0.6772308-0.5954895
			c0.1751404-0.4904099,0.3619595-0.9808102,0.5604591-1.47122c0.1634693-0.4086704,0.3502903-0.5254402,0.78232-0.4904099
			c0.1634693,0.0116796,0.3269405,0.0350304,0.4904099,0c0.4203491-0.0700598,0.6889095-0.50208,0.5721397-0.92243
			c-0.1167603-0.4553804-0.4670506-0.6538801-0.9107494-0.4904099c-0.4203491,0.1517897-0.8523693,0.3152599-1.2727203,0.4670496
			c-0.23353,0.0817299-0.4086704,0.2218504-0.5371094,0.4320202c-0.2802391,0.4904099-0.6772308,0.8873997-1.1092491,1.23769
			c-0.6422005,0.5254402-1.5412807,0.4203501-2.0783901-0.2101698c-0.1167603-0.1284399-0.1284409-0.2101698,0.0467091-0.2685604
			c0.1517906-0.04671,0.1517906-0.1284399,0.0700607-0.2452002c-0.0934105-0.1401196-0.1634693-0.2919102-0.2568798-0.4320202
			c-0.0350304-0.0583801-0.1050892-0.1401196-0.1401196-0.1284399C16.7308826,9.4270897,16.485672,9.1935701,16.2054424,9.08848
			c-0.1517906-0.0583801-0.1517906-0.1284399-0.0350304-0.2568798c0.0934105-0.0934095,0.1751499-0.1984997,0.23353-0.3152599
			C16.4856815,8.35287,16.5440617,8.16605,16.6141129,7.9558802c-0.0700607,0-0.1617908,0-0.2552109,0
			c-0.1751709,0.0116801-0.3503494,0.0350299-0.5255203,0.0116801c-0.1401396-0.0116801-0.2452402-0.1051002-0.2569199-0.2802801
			C15.5647917,7.5121102,15.681572,7.44204,15.821702,7.3953304c0.1518202-0.04671,0.2919493-0.0116801,0.3503504,0.1634998
			c0.0350304,0.1051002,0.09342,0.1634898,0.2218895,0.1167798c0.3153095-0.1167798,0.6189404-0.5488801,0.6189404-0.89922
			c0-0.1985302-0.0817509-0.3386698-0.2919598-0.36202c-0.1634998-0.0233598-0.3386707-0.04671-0.5021591-0.0817499
			c-0.5138397-0.0817499-1.0159998,0.1985302-1.3897095-0.1751699c-0.2802801-0.2802801-0.5605497-0.1868501-0.9342604-0.1868501
			h-0.5371904c-0.1868496,0-0.3620195-0.2569199-0.5488796-0.1868501c-0.1401396,0.0583901-0.3036299-0.1284599-0.4554501-0.1284599
			c-0.5955896,0.0233598-1.1094303,0.1051002-1.5181704,0.5605502c-0.09342,0.09343-0.2102098,0.1051002-0.2919502,0.2102098
			c-0.09342,0.1051002-0.1868496,0.1985302-0.2102098,0.3386698c-0.0350304,0.1401401-0.09342,0.1985302-0.2218904,0.22189
			C9.9125223,7.0216398,9.7139921,7.0450001,9.4687529,7.1384301C9.5505028,7.17346,9.6439228,7.2084999,9.7723827,7.2785702
			C9.6439228,7.3836703,9.5855331,7.4303904,9.5154629,7.4771004C9.5504904,7.5004301,9.5738401,7.53547,9.5972004,7.5471501
			C9.7490196,7.6405702,9.73734,7.7340002,9.60888,7.8390999C9.3636398,8.0376301,9.3052502,8.3295803,9.2351799,8.6098595
			C9.2235003,8.65658,9.3052397,8.75,9.3636303,8.7850399C9.42202,8.8200703,9.5037699,8.8084002,9.6205502,8.8200703
			c-0.04671,0.0700693-0.0817499,0.1284599-0.1167803,0.1751699c-0.4204102,0.5255203-0.4437704,1.03936,0,1.5531998
			c0.2802801,0.3269901,0.5021601,0.63062,0.1401396,1.1094303c0.1518202-0.0233603,0.2335596-0.0350304,0.3036299-0.0583897
			c0.1284599-0.0350399,0.2102098-0.0233603,0.2218904,0.1401396c0.0116701,0.2102098,0.1401396,0.3269901,0.3153095,0.40874
			c0.1634998,0.0817499,0.3386698,0.1518202,0.49049,0.2569199c0.5955896,0.3970604,0.5371904,1.0977497-0.0817499,1.4247398
			c-0.0700703,0.0350304-0.1167803,0.1167803-0.1634998,0.1751699c0.0817499,0.0233603,0.1751699,0.0934296,0.2452402,0.0700703
			c0.2919502-0.0817499,0.5722303-0.1868496,0.8875399-0.2919502c0.1401396,0.2218904,0.3153105,0.4554501,0.4437704,0.7240496
			c0.0467196,0.0700703-0.0233603,0.2102098-0.0467196,0.3153105c0.0467196-0.0116796,0.1284599-0.0233603,0.2218904-0.0350399
			c0.2802801-0.04671,0.3620195,0.0116796,0.3853798,0.3036299c0.0817499,0.8525095-0.1051102,1.6466303-0.5722399,2.3590002
			c-0.1518202,0.2218895-0.2919502,0.4437695-0.40874,0.6773396c-0.2102098,0.3970604-0.2802801,0.8408298-0.0350304,1.2262096
			c0.5371904,0.8641891-0.0817499,1.9152203-1.0276804,2.1137505c-0.6306295,0.1284599-1.1561403-0.0817509-1.5648804-0.58391
			c-0.4320898-0.537199-0.5722399-1.1911793-0.6422997-1.8568306c-0.1167803-1.1094303,0.1401396-2.11376,0.8525095-2.9896202
			c0.2218904-0.2802801,0.40874-0.58391,0.58391-0.8875399c0.2452402-0.4320898,0.2452402-0.8875399,0.0467196-1.3546705
			c-0.1518202-0.3620195-0.3036299-0.7240496-0.4320898-1.0860701c-0.2569199-0.7006903-0.8058004-1.0043297-1.5181704-0.8058004
			c-0.1401396,0.0350399-0.2802801,0.0934296-0.4204202,0.1634998c-0.3386698,0.1868496-0.6890101,0.3269901-1.0743999,0.1050997
			c-0.09342,0.1401396-0.0116801,0.2218904,0.0583901,0.3036299c0.1868501,0.1868496,0.1868501,0.3036299,0.0116801,0.5021601
			c-0.3970599,0.4554501-0.4204202,0.7941198-0.0583901,1.2962799c0.0817499,0.1167803,0.1634898,0.2452402,0.2335601,0.3737001
			c0.1284599,0.2569199-0.2102098,0.4204102-0.4788098,0.5021601c-0.09342,0.0233603-0.5722299,0.0233603-0.5722299,0.0350399
			v0.0455599c0.6538801,0.2685604,1.2026601,0.1167603,1.3661299-0.3736401
			c0.09341-0.2685604,0.2568798-0.2685604,0.4670501-0.1050901c0.1517901,0.1284399,0.3853197,0.1984997,0.5954905,0.1284399
			c-0.0700598-0.0700598-0.0934095-0.1284399-0.1401196-0.18682C7.9151702,14.4129076,7.98523,13.9808769,8.26546,13.7823772
			c0.23353-0.1634703,0.6071701-0.1634703,0.8290205-0.0233498c0.2568798,0.1751499,0.4203501,0.50208,0.3269396,0.8056698
			c-0.0934095,0.2802296-0.1984997,0.5838203-0.3970003,0.7939901c-0.6888895,0.7823133-1.0508599,1.669713-1.1209197,2.7205935
			c-0.0700598,1.0158405,0.0116801,1.9966602,0.5137601,2.8957291c0.7239304,1.2960796,2.3819799,1.6813908,3.4678802,0.7706394
			c0.2101698-0.1751404,0.3619604-0.4320202,0.54879-0.6538792c0.1517897-0.1868191,0.2568798-0.2218494,0.3970003-0.0350304
			c0.1751499,0.23353,0.3502903,0.4904099,0.4553804,0.7589607c0.1050901,0.2802296,0.0700598,0.5838203-0.0350304,0.8640499
			c-0.0934095,0.23353-0.3152599,0.23353-0.50208,0.3152599c-0.3502903,0.1517906-0.50208,0.4203491-0.4203501,0.8056698
			c0.04671,0.1868191,0.1167603,0.3853207,0.2101698,0.54879c0.4904099,0.8056698,0.9924898,1.6113396,1.5062504,2.4169998
			c0.1050901,0.1634693,0.2568798,0.2451992,0.4553804,0.23353c0.2568798,0,0.5137596,0,0.78232,0
			c0.50208,0,1.0158396,0,1.5179205,0c0.1401196,0,0.2802391-0.0233498,0.2802391-0.2218494
			c0-0.5721397-0.5137596-1.0508709-1.0625401-1.0041695c-0.0934095,0.0116806-0.18682,0.0116806-0.2919102,0
			c-0.2802401-0.0233498-0.5254402-0.1517906-0.6305304-0.4320202c-0.2685499-0.7005806-0.2919102-1.7164192,0.4670496-2.3235893
			c0.5371094-0.4437008,0.7239399-1.0041695,0.6071701-1.6813908c-0.0700607-0.4086704-0.1751404-0.8056698-0.2568798-1.2143402
			c-0.04671-0.23353,0.0233498-0.3502903,0.2218494-0.3035908c0.3502903,0.0700607,0.7122498,0.1401196,1.0391998,0.2919102
			c0.5137596,0.2451992,0.5604591,0.6889,0.1634693,1.09758c-0.3269405,0.3502903-0.3035793,0.6538792,0.0467091,0.9691391
			c0.3969994,0.3386097,0.78232,0.6772308,1.1676292,1.0275192c0.1517906,0.1401196,0.3386192,0.2685604,0.4437008,0.4437008
			c0.2451992,0.3969994,0.5954895,0.54879,1.0158405,0.5371094c0.6655502-0.0233498,1.33111-0.0817394,2.0083294-0.1284409
			c0.1401196-0.0116806,0.2568798-0.0583801,0.2802391-0.2218494c0.0817394-0.6305199-0.5838203-1.2960701-1.1209297-1.1559601
			c-0.4670506,0.1284409-0.8523693-0.0350304-1.2026596-0.3502903c-0.3619595-0.3386097-0.4203491-0.6188507-0.1517906-1.0391903
			c0.3853207-0.6071701,0.5604591-1.2727203,0.6538696-1.973299c0.0700607-0.5254402-0.1167603-0.9341106-0.5371094-1.2143402
			c-0.1984997-0.1284409-0.4203491-0.23353-0.6422005-0.3152599c-0.4904099-0.1984997-0.9924908-0.3502903-1.4829006-0.5604591
			c-0.2802391-0.1167603-0.3269405-0.2568798-0.1634693-0.5137596c0.23353-0.3736401,0.5020809-0.7122593,0.7589607-1.0742197
			c0.0934105-0.1284399,0.2101707-0.1167603,0.3502903-0.04671c0.3035793,0.18682,0.6422005,0.2452002,0.9924908,0.1634703
			c0.3853207-0.0934095,0.7589607-0.2452002,1.1559601-0.3619699c0.3619595-0.1167603,0.7239304-0.2218504,1.0858994-0.3035803
			c0.2919102-0.0583801,0.4553795,0.0233498,0.5838203,0.2568798c0.2101707,0.3853197,0.6188393,0.5954905,1.050869,0.5371103
			c0.3269291-0.04671,0.5020809-0.3035898,0.6071701-0.5954895C24.3788605,15.0084,24.2621002,14.7982197,24.0636005,14.6347504z"/>
	</g>
</g>
</svg>
